<svg width="71" height="73.6" version="1.1" xmlns="http://www.w3.org/2000/svg">
 <defs>
  <style>.cls-1{fill:#164194}.cls-4{fill:#e30613}.cls-5{fill:#2f52a0}.cls-6{fill:#4565ad}.cls-7{fill:#5c79bb}.cls-8{fill:#748fc9}.cls-9{fill:#1d1d1b}.cls-10{fill:#878787}</style>
 </defs>
 <g id="Marianne" transform="translate(0 -.01) scale(.161)">
  <path class="cls-1" transform="translate(-70.3 -87.4)" d="m338 317c-8.82 8.82-16.5 76.5-16.5 88.4 0 7.85 1.86 2.39 2 1.19 4.75-42.7 13.8-75.4 15.9-81.7 3.06-9.36 15.9-11 21.6-12.1s12.1-1.61 20.1-8c7.05-5.59 5.39-13.2 2.39-16.9-2.42-3-4.34-4.17-1.77-7.81s4-6.26 4.17-10.6-3.82-5.95-5.41-6.12-4.79 1.59-1.16-2.05 3.2-7.45 2.75-8.78-5.67-5-7.72-6.92c-2.44-2.34-6.12-4.88-2.39-10 5.32-7.35 5.77-11.3 5.68-14.3-0.14-4.53-13-7.54-20.8-11.7-7.64-4.08-19.8-8.07-21-21.7s-2.22-19.4-13.3-32.7-16.8-16.4-19.2-17.4-0.35-2.75 1.24-4.35 3.2-3.37 2.4-5.5-8.7-1.42-11.4-1.24c-5.5 0.37 0.8-3.64 0-10.3-0.5-4.19-4.7-8.79-14.1-16.1s-25-12.1-37.4-12.6c-37.5-1.74-55.4 8-72.1 17.8s-19 20.6-20 27-4.88 13-4.88 13h7.89c14.5-34.8 46.4-43.6 72.5-46.5 21.6-2.35 51.4 3.19 59.1 14.1 8.45 12.1-9.4 16.9-20.2 21.1 27.2-5.32 31.5-2.22 31.1 0s-4.94-0.53-14.7 0.71-14.3 8.07-20 18.4-16 8-20.6 7.9c-2.75 0-4.14 4.87 0 5.24 13 1.15 18.5-2 24.4-12.3s11.8-13.4 19-15.1 14.1 3.46 17.7 6.21 16.8 14.4 21.2 22.8c7.71 14.6 4.25 25.6 7.63 30.4 7.31 10.6 32.4 19.5 35.9 20.8s4.61 6.83 2.3 11.8-6 6.12-6.12 10.5 9.14 11.3 11.2 12.7 1.78 5.85-1.15 8.69-8.7 5.59-9.94 6.21-1.06 1.51 0 1c2.46-1.32 9.64-5.51 13.8-1.72s0.2 7.82-1.44 10.4c-1.92 3-3.32 4.9-0.58 7.91a9.81 9.81 0 0 1 2.84 7.88 8.91 8.91 0 0 1-2.35 5.49c-3.19 3.57-7 5.4-18.2 8.08-5.91 1.29-14.8 3.29-20.3 8.79z" fill="#164194"/>
  <path class="cls-1" transform="translate(-70.3 -87.4)" d="M310.24 199.18c2.82 2.79-4.09 7.16-5.13 11.86l-1.3.59c-.9 1.47.53 3.47-.78 4.07-1.52.16-2.61 1.2-3.73 2.23 2.55.94 5.32 1.25 7.76-.39a2.17 2.17 0 012.1 1.15 1.54 1.54 0 00.68-.83c.43-.2.87-.4 1.07 0l.8 1.75c-.51 2.35-3.09 2.47-4.64 3.71a21.47 21.47 0 0010-4.61c2.23-2.06-2.4-5.24-1.65-8.22-.89.41-.6-1.3-1.49-.9.49-1.27.76-3 1.44-3.83a3.39 3.39 0 002-2.51c-.4-.87-2.35-.5-2.29-1.59 1.78-2.93 3.09-6.89.72-8.77-2.06-1.64-14 .45-26.77 16.33-.45.56-.36 1.68 1.77-.27 1.07-1 5.94-5.58 10.61-7.85 4.67-2.27 8.05-2.69 8.83-1.92z" fill="#164194"/>
  <path transform="translate(-70.3 -87.4)" d="m358 237c-0.39-0.22-1.2-2.33 0.69-4.42s2.77-2.6 3.53-2.27-0.73 2.47-1.56 3.6-1.1 3.99-2.66 3.09z" fill="#444d9b"/>
  <circle class="cls-1" cx="130" cy="104" r="8.45" fill="#164194"/>
  <path class="cls-4" transform="translate(-70.3 -87.4)" d="M228.9 184.91a28.36 28.36 0 00-1.77-5.51c1.61-1.55 3.83-4 3.87-5.66l-4.32-6c-1.61-.51-4.63.81-6.61 1.84a29.1 29.1 0 00-4.7-3.47c.4-2.2.79-5.47-.17-6.87l-7-2.36c-1.61.53-3.28 3.37-4.29 5.36-.86-.09-1.73-.16-2.62-.18v4h-4.79v3.52a21.82 21.82 0 114.79 43.24v7.11c.89 0 1.76-.09 2.62-.19 1 2 2.68 4.84 4.29 5.37l7-2.36c1-1.4.57-4.67.17-6.87a29.1 29.1 0 004.7-3.47c2 1 5 2.35 6.61 1.84l4.32-6c0-1.69-2.26-4.11-3.87-5.66a28.36 28.36 0 001.77-5.59c2.21-.32 5.43-1 6.44-2.35v-7.4c-1.01-1.35-4.23-2.03-6.44-2.34z" fill="#e30613"/>
  <path class="cls-1" transform="translate(-70.3 -87.4)" d="m391 490-13-13.1c-19.7 13.3-70.4 51.3-163 24.3-2.48-0.73-5.06 1.73-1.86 4.25s90.5 37 178-15.4z" fill="#164194"/>
  <path class="cls-4" transform="translate(-70.3 -87.4)" d="m431 435c6.56-6.56 52.3-54.3 74.9-152 0.53-2.31 5.85-2.66 5.32 1.07s-14.2 99.6-67.6 162z" fill="#e30613"/>
  <path class="cls-1" transform="translate(-70.3 -87.4)" d="m242 333c-5.5-2.95-15.8-6.75-44.5 18.8h3.94v3.83c4.35-3.55 26.8-23.6 37.9-19.3 3 1.15 4.35 6.74 1.78 17.9s-16 37.5-26.3 48h9.85c3.72-6.3 17.2-30.8 21.2-44s1.56-22.3-3.85-25.2z" fill="#164194"/>
  <path class="cls-5" d="m45.5 144h4.39v4.39h-4.39z" fill="#2f52a0"/>
  <path class="cls-6" d="m38.6 235h4.86v4.86h-4.86z" fill="#4565ad"/>
  <path class="cls-1" d="m57.2 248h3.52v3.52h-3.52z" fill="#164194"/>
  <g fill="#2f52a0">
   <path class="cls-5" d="m42.5 207h2.91v2.91h-2.91z"/>
   <path class="cls-5" d="m47.7 258h2.51v2.51h-2.51z"/>
   <path class="cls-5" d="m53.6 250h2.91v2.91h-2.91z"/>
   <path class="cls-5" d="m49.9 153h5.06v5.06h-5.06z"/>
   <path class="cls-5" d="m49.9 254h4.09v4.09h-4.09z"/>
   <path class="cls-5" d="m55.1 255h3.58v3.58h-3.58z"/>
  </g>
  <path class="cls-1" d="m57.2 192h3.33v3.33h-3.33z" fill="#164194"/>
  <path class="cls-5" d="m44.5 237h4.13v4.13h-4.13z" fill="#2f52a0"/>
  <path class="cls-1" d="m61.5 195h3.66v3.66h-3.66z" fill="#164194"/>
  <path class="cls-1" d="m63.3 231h2.56v2.56h-2.56z" fill="#164194"/>
  <path class="cls-4" d="m80.5 128h5.34v5.34h-5.34z" fill="#e30613"/>
  <path class="cls-1" d="m64.7 200h5.72v5.72h-5.72z" fill="#164194"/>
  <path class="cls-5" d="m51.2 147h4.66v4.66h-4.66z" fill="#2f52a0"/>
  <path class="cls-1" d="m60.6 170h5.32v5.32h-5.32z" fill="#164194"/>
  <path class="cls-5" d="m55.9 156h5.32v5.32h-5.32z" fill="#2f52a0"/>
  <path class="cls-1" d="m67.1 194h3.33v-3.32h-3.33v-3.33h-3.86v3.86h3.86z" fill="#164194"/>
  <path class="cls-1" d="m65.9 176h5.36v5.36h-5.36z" fill="#164194"/>
  <path class="cls-5" d="m51.2 259h3.19v3.19h-3.19z" fill="#2f52a0"/>
  <g fill="#164194">
   <path class="cls-1" d="m77.8 266h4.97v4.97h-4.97z"/>
   <path class="cls-1" d="m76.4 233h4.52v4.52h-4.52z"/>
   <path class="cls-1" d="m72.8 269h4.26v4.26h-4.26z"/>
   <path class="cls-1" d="m58.9 252h2.81v2.81h-2.81z"/>
   <path class="cls-1" d="m71.2 228h2.05v2.05h-2.05z"/>
   <path class="cls-1" d="m80.9 198h4.39v4.39h-4.39z"/>
   <path class="cls-1" d="m79 228h4.09v4.09h-4.09z"/>
   <path class="cls-1" d="m81.6 193h4.26v4.26h-4.26z"/>
   <path class="cls-1" d="m79.2 224h3.46v3.46h-3.46z"/>
   <path class="cls-1" d="m71.2 193h3.96v3.96h-3.96z"/>
   <path class="cls-1" d="m66.4 248h2.2v2.2h-2.2z"/>
   <path class="cls-1" d="m61.7 247h3.44v3.44h-3.44z"/>
   <path class="cls-1" d="m62.7 275h4.38v4.38h-4.38z"/>
   <path class="cls-1" d="m59.4 233h2.58v2.58h-2.58z"/>
   <path class="cls-1" d="m74 226h3.79v3.79h-3.79z"/>
   <path class="cls-1" d="m75.9 230h1.9v1.9h-1.9z"/>
   <path class="cls-1" d="m72.8 238h3.59v3.59h-3.59z"/>
   <path class="cls-1" d="m67.1 230h2.4v2.4h-2.4z"/>
   <path class="cls-1" d="m69.5 243h3.74v3.74h-3.74z"/>
   <path class="cls-1" d="m60.6 204h2.66v2.66h-2.66z"/>
  </g>
  <g fill="#e30613">
   <path class="cls-4" d="m99.9 100h4.94v4.94h-4.94z"/>
   <path class="cls-4" d="m100 93h4.86v4.86h-4.86z"/>
   <path class="cls-4" d="m99.9 86.8h5.24v5.24h-5.24z"/>
   <path class="cls-4" d="m100 114h5.05v5.05h-5.05z"/>
   <path class="cls-4" d="m93.4 73.9h5.59v5.59h-5.59z"/>
   <path class="cls-4" d="m100 127h5.05v5.05h-5.05z"/>
  </g>
  <path class="cls-1" d="m92 254h2.76v2.76h-2.76z" fill="#164194"/>
  <g fill="#e30613">
   <path class="cls-4" d="m87.7 114h4.57v4.57h-4.57z"/>
   <path class="cls-4" d="m93.4 92.4h5.42v5.42h-5.42z"/>
   <path class="cls-4" d="m93.4 107h5.42v5.42h-5.42z"/>
   <path class="cls-4" d="m87.4 85.9h4.86v4.86h-4.86z"/>
   <path class="cls-4" d="m113 120h4.14v4.14h-4.14z"/>
   <path class="cls-4" d="m113 114h5.33v5.33h-5.33z"/>
   <path class="cls-4" d="m118 134h4.79v4.79h-4.79z"/>
   <path class="cls-4" d="m113 79.7h4.46v4.46h-4.46z"/>
   <path class="cls-4" d="m106 85.8h6.25v6.25h-6.25z"/>
   <path class="cls-4" d="m106 100h6.25v6.25h-6.25z"/>
   <path class="cls-4" d="m113 127h5.33v5.33h-5.33z"/>
   <path class="cls-4" d="m106 119h5.66v5.66h-5.66z"/>
   <path class="cls-4" d="m99.9 79.7h5.26v5.26h-5.26z"/>
  </g>
  <g fill="#2f52a0">
   <path class="cls-5" d="m46.4 119h4.49v4.49h-4.49z"/>
   <path class="cls-5" d="m42.5 201h4.72v4.72h-4.72z"/>
   <path class="cls-5" d="m46.4 207h3.84v3.84h-3.84z"/>
   <path class="cls-5" d="m41.7 137h5.51v5.51h-5.51z"/>
   <path class="cls-5" d="m49.6 235h3.79v3.79h-3.79z"/>
   <path class="cls-5" d="m55.9 164h4.66v4.66h-4.66z"/>
  </g>
  <path class="cls-6" d="m40.1 130h4.92v4.92h-4.92z" fill="#4565ad"/>
  <g fill="#2f52a0">
   <path class="cls-5" d="m51.2 206h4.39v4.39h-4.39z"/>
   <path class="cls-5" d="m54.4 233h4.52v4.52h-4.52z"/>
   <path class="cls-5" d="m55 185h5.59v5.59h-5.59z"/>
   <path class="cls-5" d="m45.5 99.6h4.79v4.79h-4.79z"/>
  </g>
  <path class="cls-4" d="m87.4 121h4.86v4.86h-4.86z" fill="#e30613"/>
  <path class="cls-5" d="m44.8 107h4.79v4.79h-4.79z" fill="#2f52a0"/>
  <path class="cls-1" d="m82.6 221h2v2h-2z" fill="#164194"/>
  <path class="cls-4" d="m87.4 107h4.79v4.79h-4.79z" fill="#e30613"/>
  <path class="cls-1" d="m86.8 197h2.93v2.93h-2.93z" fill="#164194"/>
  <path class="cls-4" d="m87.4 93h4.86v4.86h-4.86z" fill="#e30613"/>
  <path class="cls-5" d="m46.4 125h4.86v4.86h-4.86z" fill="#2f52a0"/>
  <path class="cls-5" d="m56.5 207h2.91v2.91h-2.91z" fill="#2f52a0"/>
  <path class="cls-1" d="m83.3 267h2.57v2.57h-2.57z" fill="#164194"/>
  <path class="cls-1" d="m77 59.5h7.94v7.94h-7.94z" fill="#164194"/>
  <g fill="#2f52a0">
   <path class="cls-5" d="m47.2 280h4.29v4.29h-4.29z"/>
   <path class="cls-5" d="m42.1 279h4.07v4.07h-4.07z"/>
   <path class="cls-5" d="m42.5 261h4.26v4.26h-4.26z"/>
  </g>
  <g fill="#4565ad">
   <path class="cls-6" d="m38.6 265h3.14v3.14h-3.14z"/>
   <path class="cls-6" d="m39.5 262h2.21v2.21h-2.21z"/>
   <path class="cls-6" d="m65.1 296h2.74v2.74h-2.74z"/>
   <path class="cls-6" d="m36.7 280h4.19v4.19h-4.19z"/>
   <path class="cls-6" d="m61.7 297h2.49v2.49h-2.49z"/>
  </g>
  <path class="cls-1" d="m57.8 277h3.94v3.94h-3.94z" fill="#164194"/>
  <path class="cls-5" d="m52.4 278h4.11v4.11h-4.11z" fill="#2f52a0"/>
  <g fill="#5c79bb">
   <path class="cls-7" d="m16.8 284h2.98v2.98h-2.98z"/>
   <path class="cls-7" d="m16 223h2.79v2.79h-2.79z"/>
   <path class="cls-7" d="m13.3 289h2.66v2.66h-2.66z"/>
  </g>
  <path class="cls-6" d="m69.5 298h2.72v2.72h-2.72z" fill="#4565ad"/>
  <g fill="#5c79bb">
   <path class="cls-7" d="m12.6 285h2.66v2.66h-2.66z"/>
   <path class="cls-7" d="m21.6 284h2.98v2.98h-2.98z"/>
   <path class="cls-7" d="m25.3 286h2.93v2.93h-2.93z"/>
  </g>
  <path class="cls-6" d="m28.2 282h2.36v2.36h-2.36z" fill="#4565ad"/>
  <path class="cls-6" d="m31.7 281h4.26v4.26h-4.26z" fill="#4565ad"/>
  <path class="cls-7" d="m17.3 289h2.94v2.94h-2.94z" fill="#5c79bb"/>
  <g fill="#164194">
   <path class="cls-1" d="m120 270h4.22v4.22h-4.22z"/>
   <path class="cls-1" d="m114 278h-3.15v2.07h-4.12v4.13h4.12v-3.06h3.15z"/>
   <path class="cls-1" d="m115 277h3.34v3.34h-3.34z"/>
  </g>
  <path class="cls-5" d="m102 284h4.13v4.13h-4.13z" fill="#2f52a0"/>
  <path class="cls-5" d="m98.6 289h2.93v2.93h-2.93z" fill="#2f52a0"/>
  <path class="cls-1" d="m116 273h2.94v2.94h-2.94z" fill="#164194"/>
  <path class="cls-4" d="m124 133h5.87v5.87h-5.87z" fill="#e30613"/>
  <path class="cls-4" d="m93.4 128h4.89v4.89h-4.89z" fill="#e30613"/>
  <path class="cls-1" d="m125 266h4.55v4.55h-4.55z" fill="#164194"/>
  <path class="cls-8" d="m8.6 287h3.38v3.38h-3.38z" fill="#748fc9"/>
  <path class="cls-1" d="m88.2 258h4.22v4.22h-4.22z" fill="#164194"/>
  <g fill="#4565ad">
   <path class="cls-6" d="m84.6 293h2.88v2.88h-2.88z"/>
   <path class="cls-6" d="m76.8 296h2.35v2.35h-2.35z"/>
   <path class="cls-6" d="m80.3 295h3.44v3.44h-3.44z"/>
  </g>
  <path class="cls-4" d="m80 114h5.33v5.33h-5.33z" fill="#e30613"/>
  <path class="cls-5" d="m93.3 290h4.37v4.37h-4.37z" fill="#2f52a0"/>
  <path class="cls-1" d="m83.6 262h3.79v3.79h-3.79z" fill="#164194"/>
  <path class="cls-1" d="m67.9 273h4.31v4.31h-4.31z" fill="#164194"/>
  <path class="cls-5" d="m88.8 292h3.65v3.65h-3.65z" fill="#2f52a0"/>
  <path class="cls-1" d="m87.4 201h4.52v4.52h-4.52z" fill="#164194"/>
  <g fill="#4565ad">
   <path class="cls-6" d="m72.8 296h3.09v3.09h-3.09z"/>
   <path class="cls-6" d="m39.5 112h4.42v4.42h-4.42z"/>
   <path class="cls-6" d="m38.6 117h4.52v4.52h-4.52z"/>
   <path class="cls-6" d="m39.5 104h4.42v4.42h-4.42z"/>
  </g>
  <path class="cls-5" d="m41.5 93h4.86v4.86h-4.86z" fill="#2f52a0"/>
  <path class="cls-6" d="m35.3 234h2.79v2.79h-2.79z" fill="#4565ad"/>
  <path class="cls-5" d="m46.2 87h5.06v5.06h-5.06z" fill="#2f52a0"/>
  <g fill="#4565ad">
   <path class="cls-6" d="m31.7 199h3.59v3.59h-3.59z"/>
   <path class="cls-6" d="m34.3 264h3.73v3.73h-3.73z"/>
   <path class="cls-6" d="m35.9 198h4.92v4.92h-4.92z"/>
   <path class="cls-6" d="m38.6 123h5.06v5.06h-5.06z"/>
  </g>
  <g fill="#164194">
   <path class="cls-1" d="m70.4 183h4.79v4.79h-4.79z"/>
   <path class="cls-1" d="m76.4 187h4.52v4.52h-4.52z"/>
   <path class="cls-1" d="m76.4 197h2.79v2.79h-2.79z"/>
  </g>
  <path class="cls-4" d="m80.9 101h4.92v4.92h-4.92z" fill="#e30613"/>
  <path class="cls-5" d="m47.2 131h5.32v5.32h-5.32z" fill="#2f52a0"/>
  <path class="cls-5" d="m53.6 83h5.82v5.82h-5.82z" fill="#2f52a0"/>
  <path class="cls-1" d="m69.1 62.5h4.33v4.33h-4.33z" fill="#164194"/>
  <path class="cls-5" d="m56.6 73.9h5.79v5.79h-5.79z" fill="#2f52a0"/>
  <path class="cls-1" d="m64.5 69h4.92v4.92h-4.92z" fill="#164194"/>
  <path class="cls-6" d="m30.6 232h2.89v2.89h-2.89z" fill="#4565ad"/>
  <path class="cls-8" d="m10.5 223h4.26v4.26h-4.26z" fill="#748fc9"/>
  <g fill="#5c79bb">
   <path class="cls-7" d="m11.3 198h2.56v2.56h-2.56z"/>
   <path class="cls-7" d="m19.8 226h2.33v2.33h-2.33z"/>
   <path class="cls-7" d="m16 198h2.63v2.63h-2.63z"/>
  </g>
  <g fill="#748fc9">
   <path class="cls-8" d="m6.12 197h2.48v2.48h-2.48z"/>
   <path class="cls-8" d="M0 219.52h4.26v4.26H0z"/>
   <path class="cls-8" d="m1.46 197h2.79v2.79h-2.79z"/>
   <path class="cls-8" d="m4.26 287h2.92v2.92h-2.92z"/>
   <path class="cls-8" d="m5.19 221h4.52v4.52h-4.52z"/>
  </g>
  <path class="cls-7" d="m20.2 199h2.79v2.79h-2.79z" fill="#5c79bb"/>
  <path class="cls-6" d="m27.6 228h2.99v2.99h-2.99z" fill="#4565ad"/>
  <g fill="#5c79bb">
   <path class="cls-7" d="m24.6 269h4.26v4.26h-4.26z"/>
   <path class="cls-7" d="m23.4 278h3.73v3.73h-3.73z"/>
   <path class="cls-7" d="m23 275h3.16v3.16h-3.16z"/>
   <path class="cls-7" d="m23 228h3.16v3.16h-3.16z"/>
   <path class="cls-7" d="m27.2 198h3.43v3.43h-3.43z"/>
  </g>
  <path class="cls-8" d="m3.59 291h4.19v4.19h-4.19z" fill="#748fc9"/>
  <path class="cls-7" d="m23.4 198h2.76v2.76h-2.76z" fill="#5c79bb"/>
  <path class="cls-6" d="m29.9 268h3.64v3.64h-3.64z" fill="#4565ad"/>
  <path class="cls-4" d="m119 72.1h5.66v5.66h-5.66z" fill="#e30613"/>
 </g>
 <g id="Texte" transform="translate(0 -.01) scale(.161)">
  <g fill="#1d1d1b">
   <path class="cls-9" transform="translate(-70.3 -87.4)" d="m149 465v-48.6h19.6a54.8 54.8 0 0 1 10.1 0.7 20.7 20.7 0 0 1 8.33 3.48 20 20 0 0 1 6.73 8.3 28.3 28.3 0 0 1 2.23 11.6 29.3 29.3 0 0 1-1.51 9.81 22.5 22.5 0 0 1-3.88 7.08 19.5 19.5 0 0 1-5.18 4.4 22.8 22.8 0 0 1-6.78 2.44 45.3 45.3 0 0 1-9.13 0.83zm7.53-5.74h12.1a34.2 34.2 0 0 0 8.83-0.89 13.3 13.3 0 0 0 5.09-2.52 14.8 14.8 0 0 0 4.17-6.15 25.9 25.9 0 0 0 1.5-9.36q0-7.62-2.93-11.7a14.3 14.3 0 0 0-7.12-5.48c-2-0.66-5.26-1-9.73-1h-11.9z"/>
   <path class="cls-9" transform="translate(-70.3 -87.4)" d="m206 465v-48.6h7.71l29.9 38.2v-38.2h7.21v48.6h-7.69l-29.9-38.2v38.2z"/>
   <path class="cls-9" transform="translate(-70.3 -87.4)" d="m301 416h7.52v28.1c0 4.89-0.65 8.76-1.94 11.6a15.1 15.1 0 0 1-7 7q-5.06 2.7-13.3 2.7-8 0-13.1-2.36a14.4 14.4 0 0 1-7.25-6.81q-2.17-4.46-2.17-12.2v-28.1h7.55v28q0 6.33 1.38 9.33a9.51 9.51 0 0 0 4.73 4.62 18.6 18.6 0 0 0 8.2 1.63q8.3 0 11.8-3.22t3.53-12.4z"/>
   <path class="cls-9" transform="translate(-70.3 -87.4)" d="m320 465v-48.6h11.3l13.5 34.4c1.24 3.21 2.14 5.6 2.71 7.19 0.65-1.76 1.66-4.36 3-7.78l13.6-33.8h10.1v48.6h-7.25v-40.6l-16.5 40.7h-6.79l-16.4-41.4v41.4z"/>
   <path class="cls-9" transform="translate(-70.3 -87.4)" d="M175.08 471.83H177a5.57 5.57 0 014 1.24 5.24 5.24 0 010 7.7 5.41 5.41 0 01-4 1.29h-1.9zm2 9.17a4.27 4.27 0 003.22-1.05 4.18 4.18 0 00-.05-6.07 4.39 4.39 0 00-3.17-1h-.83V481z"/>
   <path class="cls-9" transform="translate(-70.3 -87.4)" d="m185 482h-1.14v-10.2h1.14z"/>
   <path class="cls-9" transform="translate(-70.3 -87.4)" d="M188.66 482.06h-1.14v-10.23H189c1.94 0 3.74.52 3.74 2.83a2.68 2.68 0 01-2.56 2.82l3.26 4.58H192l-3-4.49h-.29zm0-5.49h.34c1.29 0 2.59-.25 2.59-1.83s-1.23-1.85-2.6-1.85h-.34z"/>
   <path class="cls-9" transform="translate(-70.3 -87.4)" d="m195 472h5.3v1.06h-4.18v3h4v1.11h-4v4h4.16v1.06h-5.3z"/>
   <path class="cls-9" transform="translate(-70.3 -87.4)" d="M209.92 474.07a4.38 4.38 0 00-3.12-1.36 4.24 4.24 0 000 8.47 4.45 4.45 0 003.09-1.36v1.41a5.23 5.23 0 01-3 1 5.29 5.29 0 110-10.58 4.92 4.92 0 013 1z"/>
   <path class="cls-9" transform="translate(-70.3 -87.4)" d="m215 482h-1.14v-9.17h-2.43v-1.06h6.1v1.06h-2.49z"/>
   <path class="cls-9" transform="translate(-70.3 -87.4)" d="m219 482h-1.14v-10.2h1.14z"/>
   <path class="cls-9" transform="translate(-70.3 -87.4)" d="M231.62 477a5.33 5.33 0 11-5.33-5.3 5.3 5.3 0 015.33 5.3zm-9.52 0a4.19 4.19 0 104.19-4.24 4.23 4.23 0 00-4.19 4.24z"/>
   <path class="cls-9" transform="translate(-70.3 -87.4)" d="m233 471 8 8.36v-7.93h1.13v10.7l-8-8.34v7.88h-1.14z"/>
   <path class="cls-9" transform="translate(-70.3 -87.4)" d="M248.67 471.83h1.92a5.58 5.58 0 014 1.24 5.24 5.24 0 010 7.7 5.41 5.41 0 01-4 1.29h-1.9zm2 9.17a4.28 4.28 0 003.23-1.05 4.18 4.18 0 00-.05-6.07 4.4 4.4 0 00-3.18-1h-.82V481z"/>
   <path class="cls-9" transform="translate(-70.3 -87.4)" d="M259 477.92a3.75 3.75 0 00.45 2.28 2.62 2.62 0 002.06 1 2.72 2.72 0 002-.91 3.54 3.54 0 00.5-2.35v-6.09h1.14v6.41a3.57 3.57 0 01-.9 2.83 3.75 3.75 0 01-2.75 1.17 3.81 3.81 0 01-2.64-1.05 3.58 3.58 0 01-1-2.95v-6.41H259z"/>
   <path class="cls-9" transform="translate(-70.3 -87.4)" d="m271 471 8 8.36v-7.93h1.14v10.7l-8-8.34v7.88h-1.14z"/>
   <path class="cls-9" transform="translate(-70.3 -87.4)" d="M283.77 477.92a3.82 3.82 0 00.45 2.28 2.63 2.63 0 002.06 1 2.72 2.72 0 002-.91 3.54 3.54 0 00.5-2.35v-6.09h1.14v6.41a3.6 3.6 0 01-.89 2.83 3.84 3.84 0 01-5.4.12 3.58 3.58 0 01-1-2.95v-6.41h1.14z"/>
   <path class="cls-9" transform="translate(-70.3 -87.4)" d="m293 471 3.71 8.59 3.73-8.59 2.08 10.8h-1.17l-1.31-6.92-3.3 7.34-3.28-7.34-1.31 6.92h-1.17z"/>
   <path class="cls-9" transform="translate(-70.3 -87.4)" d="m304 472h5.31v1.06h-4.17v3h4.05v1.11h-4.05v4h4.17v1.06h-5.31zm4.52-2.86-2.07 2.09-0.68-0.38 1.61-2.22z"/>
   <path class="cls-9" transform="translate(-70.3 -87.4)" d="M312.5 482.06h-1.14v-10.23h1.48c1.94 0 3.74.52 3.74 2.83a2.68 2.68 0 01-2.56 2.82l3.26 4.58h-1.4l-3.09-4.49h-.29zm0-5.49h.35c1.29 0 2.59-.25 2.59-1.83s-1.23-1.85-2.6-1.85h-.34z"/>
   <path class="cls-9" transform="translate(-70.3 -87.4)" d="m320 482h-1.14v-10.2h1.14z"/>
   <path class="cls-9" transform="translate(-70.3 -87.4)" d="M329.85 481.23a5.25 5.25 0 112.26-4.24 5.09 5.09 0 01-1.48 3.61l1.53 1.56h-1.45zm0-1.45A3.94 3.94 0 00331 477a4.2 4.2 0 10-4.19 4.23 4 4 0 002.27-.76l-2.47-2.48h1.5z"/>
   <path class="cls-9" transform="translate(-70.3 -87.4)" d="M334.77 477.92a3.75 3.75 0 00.45 2.28 2.62 2.62 0 002.06 1 2.72 2.72 0 002-.91 3.54 3.54 0 00.5-2.35v-6.09h1.14v6.41a3.57 3.57 0 01-.9 2.83 3.75 3.75 0 01-2.75 1.17 3.86 3.86 0 01-2.65-1.05 3.61 3.61 0 01-1-2.95v-6.41h1.14z"/>
   <path class="cls-9" transform="translate(-70.3 -87.4)" d="m343 472h5.31v1.06h-4.17v3h4v1.11h-4v4h4.17v1.06h-5.31z"/>
  </g>
  <g fill="#878787">
   <path class="cls-10" transform="translate(-70.3 -87.4)" d="m301 545-1.51 0.1-1.1-15.6 1.52-0.11z"/>
   <path class="cls-10" transform="translate(-70.3 -87.4)" d="m307 530-1.71 5-1.03-0.25 1.32-5.11z"/>
   <path class="cls-10" transform="translate(-70.3 -87.4)" d="m313 531a1.09 1.09 0 0 1-1 1.2 1.07 1.07 0 0 1-1.2-0.95 1.08 1.08 0 1 1 2.15-0.25zm1.11 12.2-1.51 0.18-1-8.87 1.51-0.18z"/>
   <path class="cls-10" transform="translate(-70.3 -87.4)" d="M318.81 535.05a3 3 0 012.32-1.69c2.44-.37 3.27 1.31 3.59 3.38l.79 5.24-1.5.22-.76-5c-.21-1.43-.52-2.69-2.26-2.43-2.07.31-1.91 2.25-1.67 3.83l.63 4.19-1.5.22-1.34-8.82 1.51-.23z"/>
   <path class="cls-10" transform="translate(-70.3 -87.4)" d="M329.92 533.2a3 3 0 012.24-1.79c2.43-.48 3.33 1.16 3.74 3.21l1 5.2-1.49.3-1-4.94c-.28-1.42-.64-2.67-2.38-2.32-2.05.4-1.8 2.33-1.5 3.9l.82 4.15-1.49.3-1.73-8.77 1.5-.29z"/>
   <path class="cls-10" transform="translate(-70.3 -87.4)" d="M339.53 534.72a4.69 4.69 0 115.68 3.44 4.67 4.67 0 01-5.68-3.44zm1.47-.38a3.18 3.18 0 102.29-4 3.16 3.16 0 00-2.29 4z"/>
   <path class="cls-10" transform="translate(-70.3 -87.4)" d="m355 532 0.84-6.52 1.64-0.48-1.48 10.4-6.92-7.88 1.66-0.49z"/>
   <path class="cls-10" transform="translate(-70.3 -87.4)" d="m371 530-1.44 0.5-0.4-1.17a3.75 3.75 0 0 1-2.42 2.41c-2.47 0.87-4.76-0.69-5.58-3s0-5 2.49-5.88a3.84 3.84 0 0 1 3.39 0.43l-0.42-1.2 1.43-0.5zm-8.45-1.88c0.58 1.65 2.09 2.87 3.89 2.24s2.29-2.47 1.7-4.17a3 3 0 0 0-3.9-2.06 3 3 0 0 0-1.69 3.99z"/>
   <path class="cls-10" transform="translate(-70.3 -87.4)" d="M376.48 527.88l-1.41.56-2.77-7-.87.34-.51-1.31.86-.34-1.18-3 1.42-.56 1.18 3 1.48-.58.52 1.3-1.49.59z"/>
   <path class="cls-10" transform="translate(-70.3 -87.4)" d="m378 514a1.09 1.09 0 0 1-2 0.85 1.09 1.09 0 0 1 2-0.85zm4.54 11.4-1.39 0.6-3.52-8.21 1.4-0.6z"/>
   <path class="cls-10" transform="translate(-70.3 -87.4)" d="m384 520a4.69 4.69 0 1 1 6.26 2.21 4.69 4.69 0 0 1-6.26-2.21zm1.37-0.67a3.17 3.17 0 1 0 5.72-2.74 3.17 3.17 0 1 0-5.72 2.74z"/>
   <path class="cls-10" transform="translate(-70.3 -87.4)" d="M395.24 510.53a3 3 0 011.59-2.39c2.17-1.19 3.52.11 4.53 1.94l2.54 4.65-1.33.73-2.38-4.46c-.69-1.26-1.41-2.34-3-1.49-1.83 1-1 2.76-.25 4.16l2 3.72-1.33.73-4.29-7.83 1.33-.73z"/>
   <path class="cls-10" transform="translate(-70.3 -87.4)" d="M420.93 504l-1.26.85-.69-1a3.77 3.77 0 01-1.73 2.95 4.41 4.41 0 01-6.17-1.51c-1.42-2.12-1.29-4.83.93-6.33a3.88 3.88 0 013.39-.44l-.71-1.06 1.26-.84zm-8.65.31c1 1.45 2.75 2.25 4.33 1.2s1.6-3 .59-4.47a3 3 0 00-4.29-1 3 3 0 00-.63 4.26z"/>
   <path class="cls-10" transform="translate(-70.3 -87.4)" d="m423 497c0.9 1.19 1.82 2.12 3.29 1s0.83-2.25-0.08-3.44l-3-4 1.21-0.91 3.11 4.11c1.43 1.89 1.71 3.75-0.39 5.34s-3.82 0.81-5.25-1.08l-3.11-4.11 1.21-0.92z"/>
   <path class="cls-10" transform="translate(-70.3 -87.4)" d="M437.3 482.16a1.4 1.4 0 00-1.51.13 1.08 1.08 0 00-.17 1.47c.55.61 1.52.15 2.59-.22a2.72 2.72 0 013.25.54 2.93 2.93 0 01-.32 4.18 3.22 3.22 0 01-3.86.41l.63-1.32a1.91 1.91 0 002.31-.15 1.37 1.37 0 00.17-2c-1.33-1.49-3.88 1.71-5.76-.39a2.56 2.56 0 01.31-3.66 2.72 2.72 0 012.87-.35z"/>
   <path class="cls-10" transform="translate(-70.3 -87.4)" d="M443.64 480a2.89 2.89 0 004.18.07 3 3 0 00.64-3.22l1.44-.37a4.51 4.51 0 01-1.18 4.68 4.33 4.33 0 01-6.34-.22c-1.85-1.88-2.28-4.52-.29-6.48 1.99-1.96 4.79-1.38 6.55.62zm3-4.72a2.72 2.72 0 00-3.51.17 2.82 2.82 0 00-.3 3.57z"/>
   <path class="cls-10" transform="translate(-70.3 -87.4)" d="M449.22 468.87a2.32 2.32 0 01.46-2.28 2.71 2.71 0 011.24-.71l.52 1.47a1.47 1.47 0 00-.91.39c-1.14 1.23.37 2.75 1.22 3.54l3.27 3-1 1.11-6.53-6.08 1-1.12z"/>
   <path class="cls-10" transform="translate(-70.3 -87.4)" d="m460 465-2.85-5.91 1.11-1.31 4.41 9.5-10.1-2.83 1.12-1.31z"/>
   <path class="cls-10" transform="translate(-70.3 -87.4)" d="M458.23 451.68a1.08 1.08 0 01.18 1.52 1.082 1.082 0 11-1.7-1.34 1.1 1.1 0 011.52-.18zm9.44 7.88l-.94 1.19-7-5.54.94-1.19z"/>
   <path class="cls-10" transform="translate(-70.3 -87.4)" d="M469.41 446.79a3.41 3.41 0 00-2.85 1.35 3.19 3.19 0 00.8 4.5 3.14 3.14 0 004.49-.53 3.47 3.47 0 00.47-3.26l1.64 1.2a4.87 4.87 0 01-.94 2.83 4.63 4.63 0 01-6.61 1 4.71 4.71 0 01-1-6.63 4.9 4.9 0 012.35-1.7z"/>
   <path class="cls-10" transform="translate(-70.3 -87.4)" d="M473.73 444.27a2.9 2.9 0 004.11-.79 3.08 3.08 0 000-3.29l1.33-.66a4.52 4.52 0 01-.18 4.82 4.32 4.32 0 01-6.25 1.1c-2.2-1.46-3.17-3.95-1.63-6.28s4.4-2.34 6.54-.75zm1.92-5.23a2.74 2.74 0 00-3.4.89 2.84 2.84 0 00.45 3.56z"/>
   <path class="cls-10" transform="translate(-70.3 -87.4)" d="M488.94 424.88a3.8 3.8 0 01-.2 3.41 4.4 4.4 0 01-6.18 1.45c-2.23-1.23-3.35-3.71-2.05-6a3.85 3.85 0 012.82-1.93l-7-3.9.74-1.33 13.7 7.63-.74 1.33zm-5.75 3.48c1.53.85 3.48.76 4.4-.9.92-1.66.07-3.38-1.5-4.26a3 3 0 00-4.29 1.05 3 3 0 001.39 4.11z"/>
   <path class="cls-10" transform="translate(-70.3 -87.4)" d="M489.44 417.72a2.89 2.89 0 004-1.29 3 3 0 00-.43-3.25l1.24-.83a4.53 4.53 0 01.4 4.81 4.33 4.33 0 01-6.07 1.86c-2.36-1.18-3.63-3.53-2.38-6s4.09-2.87 6.4-1.55zm1.26-5.42a2.72 2.72 0 00-3.26 1.3 2.81 2.81 0 00.88 3.47z"/>
   <path class="cls-10" transform="translate(-70.3 -87.4)" d="M501.39 401.93l-.6 1.39-6.91-3-.37.86-1.29-.56.37-.85-2.95-1.27.6-1.4 2.95 1.27.63-1.47 1.29.56-.63 1.46z"/>
   <path class="cls-10" transform="translate(-70.3 -87.4)" d="M498.7 396.94a4.7 4.7 0 116.09-2.65 4.69 4.69 0 01-6.09 2.65zm.54-1.43a3.17 3.17 0 10-1.91-4.16 3.16 3.16 0 001.91 4.16z"/>
   <path class="cls-10" transform="translate(-70.3 -87.4)" d="m504 384c1.41 0.5 2.69 0.77 3.3-1s-0.55-2.33-2-2.83l-4.7-1.64 0.51-1.44 4.86 1.7c2.24 0.79 3.5 2.18 2.63 4.67s-2.73 2.79-5 2l-4.86-1.7 0.5-1.43z"/>
   <path class="cls-10" transform="translate(-70.3 -87.4)" d="M505.62 370.55a1.43 1.43 0 00-1.23.88 1.08 1.08 0 00.61 1.35c.77.25 1.37-.64 2.11-1.5a2.73 2.73 0 013.07-1.2 2.93 2.93 0 011.86 3.76 3.22 3.22 0 01-3.11 2.32l-.14-1.46c.91-.11 1.61-.35 1.91-1.3a1.35 1.35 0 00-.87-1.79c-1.9-.61-2.46 3.44-5.14 2.59a2.54 2.54 0 01-1.61-3.3 2.7 2.7 0 012.29-1.76z"/>
  </g>
 </g>
</svg>
