<?xml version="1.0" encoding="UTF-8" standalone="no"?>
<!-- Created with Inkscape (http://www.inkscape.org/) -->

<svg
   xmlns:dc="http://purl.org/dc/elements/1.1/"
   xmlns:cc="http://creativecommons.org/ns#"
   xmlns:rdf="http://www.w3.org/1999/02/22-rdf-syntax-ns#"
   xmlns:svg="http://www.w3.org/2000/svg"
   xmlns="http://www.w3.org/2000/svg"
   xmlns:xlink="http://www.w3.org/1999/xlink"
   xmlns:sodipodi="http://sodipodi.sourceforge.net/DTD/sodipodi-0.dtd"
   xmlns:inkscape="http://www.inkscape.org/namespaces/inkscape"
   width="14.276014mm"
   height="14.276014mm"
   viewBox="0 0 50.584305 50.584302"
   id="svg8912"
   version="1.1"
   inkscape:version="0.92.3 (2405546, 2018-03-11)"
   sodipodi:docname="favicon.svg"
   inkscape:export-filename="./matchID-logo.png"
   inkscape:export-xdpi="1000.3077"
   inkscape:export-ydpi="1000.3077">
  <defs
     id="defs8914">
    <linearGradient
       inkscape:collect="always"
       id="linearGradient4908">
      <stop
         style="stop-color:#003189;stop-opacity:1;"
         offset="0"
         id="stop4910" />
      <stop
         style="stop-color:#003189;stop-opacity:0;"
         offset="1"
         id="stop4912" />
    </linearGradient>
    <linearGradient
       inkscape:collect="always"
       id="linearGradient4183">
      <stop
         id="stop4187"
         offset="0"
         style="stop-color:#ffffff;stop-opacity:0;" />
      <stop
         style="stop-color:#ffffff;stop-opacity:0.59625667"
         offset="0.3547895"
         id="stop4229" />
      <stop
         id="stop4185"
         offset="1"
         style="stop-color:#ffffff;stop-opacity:1;" />
    </linearGradient>
    <linearGradient
       id="linearGradient6928">
      <stop
         style="stop-color:#174791;stop-opacity:1;"
         offset="0"
         id="stop6930" />
      <stop
         style="stop-color:#c2001f;stop-opacity:0.31123918"
         offset="1"
         id="stop6934" />
    </linearGradient>
    <linearGradient
       inkscape:collect="always"
       id="linearGradient6450">
      <stop
         style="stop-color:#003189;stop-opacity:1;"
         offset="0"
         id="stop6452" />
      <stop
         style="stop-color:#003189;stop-opacity:0;"
         offset="1"
         id="stop6454" />
    </linearGradient>
    <linearGradient
       inkscape:collect="always"
       xlink:href="#linearGradient6450"
       id="linearGradient6456-3"
       x1="-419.73984"
       y1="-400.78754"
       x2="-460.14178"
       y2="-401.41888"
       gradientUnits="userSpaceOnUse"
       gradientTransform="matrix(1.0946986,0,0,1.0946986,251.47879,45.066851)" />
    <linearGradient
       inkscape:collect="always"
       xlink:href="#linearGradient4183"
       id="linearGradient4189"
       x1="-398.63919"
       y1="-393.46112"
       x2="-201.88051"
       y2="-393.46112"
       gradientUnits="userSpaceOnUse" />
    <linearGradient
       inkscape:collect="always"
       xlink:href="#linearGradient4908"
       id="linearGradient4914"
       x1="-202.1526"
       y1="-386.11569"
       x2="-252.7865"
       y2="-386.11569"
       gradientUnits="userSpaceOnUse" />
  </defs>
  <sodipodi:namedview
     id="base"
     pagecolor="#ffffff"
     bordercolor="#666666"
     borderopacity="1.0"
     inkscape:pageopacity="0.0"
     inkscape:pageshadow="2"
     inkscape:zoom="5.6"
     inkscape:cx="-5.6560264"
     inkscape:cy="18.549"
     inkscape:document-units="px"
     inkscape:current-layer="layer1"
     showgrid="false"
     inkscape:window-width="1518"
     inkscape:window-height="1015"
     inkscape:window-x="277"
     inkscape:window-y="34"
     inkscape:window-maximized="0"
     fit-margin-top="0"
     fit-margin-left="0"
     fit-margin-right="0"
     fit-margin-bottom="0"
     showborder="true" />
  <metadata
     id="metadata8917">
    <rdf:RDF>
      <cc:Work
         rdf:about="">
        <dc:format>image/svg+xml</dc:format>
        <dc:type
           rdf:resource="http://purl.org/dc/dcmitype/StillImage" />
        <dc:title />
      </cc:Work>
    </rdf:RDF>
  </metadata>
  <g
     inkscape:label="Calque 1"
     inkscape:groupmode="layer"
     id="layer1"
     transform="translate(251.7865,418.60516)">
    <text
       xml:space="preserve"
       style="font-style:normal;font-weight:normal;line-height:0%;font-family:sans-serif;letter-spacing:0px;word-spacing:0px;fill:#e2011c;fill-opacity:1;stroke:none;stroke-width:1px;stroke-linecap:butt;stroke-linejoin:miter;stroke-opacity:1"
       x="-600.99713"
       y="-328.62854"
       id="text6351-3-9"><tspan
         sodipodi:role="line"
         id="tspan6353-1-4"
         x="-600.99713"
         y="-328.62854"
         style="font-style:normal;font-variant:normal;font-weight:normal;font-stretch:normal;font-size:44.39190292px;line-height:125%;font-family:Raleway;-inkscape-font-specification:'Raleway, Normal';text-align:start;writing-mode:lr-tb;text-anchor:start;fill:#e2011c;fill-opacity:1"> <tspan
   style="fill:#003189;fill-opacity:1"
   id="tspan6360-4-2" /></tspan></text>
    <rect
       inkscape:export-ydpi="1821.91"
       inkscape:export-xdpi="1821.91"
       inkscape:export-filename="./matchID-logo-square.png"
       style="color:#000000;clip-rule:nonzero;display:inline;overflow:visible;visibility:visible;opacity:1;isolation:auto;mix-blend-mode:normal;color-interpolation:sRGB;color-interpolation-filters:linearRGB;solid-color:#000000;solid-opacity:1;fill:url(#linearGradient4914);fill-opacity:1;fill-rule:nonzero;stroke:none;stroke-width:2;stroke-linecap:butt;stroke-linejoin:miter;stroke-miterlimit:4;stroke-dasharray:none;stroke-dashoffset:0;stroke-opacity:1;color-rendering:auto;image-rendering:auto;shape-rendering:auto;text-rendering:auto;enable-background:accumulate"
       id="rect4817-6"
       width="50.584305"
       height="50.584305"
       x="-251.7865"
       y="-418.60516" />
    <path
       style="color:#000000;clip-rule:nonzero;display:inline;overflow:visible;visibility:visible;opacity:1;isolation:auto;mix-blend-mode:normal;color-interpolation:sRGB;color-interpolation-filters:linearRGB;solid-color:#000000;solid-opacity:1;fill:url(#linearGradient4189);fill-opacity:1;fill-rule:evenodd;stroke:none;stroke-width:3;stroke-linecap:butt;stroke-linejoin:miter;stroke-miterlimit:4;stroke-dasharray:none;stroke-dashoffset:0;stroke-opacity:1;color-rendering:auto;image-rendering:auto;shape-rendering:auto;text-rendering:auto;enable-background:accumulate"
       d="m -218.86201,-418.74318 h -32.94681 l 0.0893,50.5641 h 41.23731 l -0.68399,-3.07225 -2.27687,-2.44 -0.56923,-1.8499 -0.25819,-3.59367 1.97793,-2.70695 3.57689,-0.0358 2.84611,-0.6666 1.18978,-2.25891 -0.7791,-2.10593 0.80022,-1.76248 -0.30951,-0.73528 0.80929,-1.21921 -0.18875,-2.26829 2.03833,-0.68689 0.42881,-1.41904 -1.79524,-2.38224 -2.31765,-3.99485 1.39965,-1.38159 -1.97643,-4.72857 -1.99604,-3.33607 1.85564,-1.28947 -1.76957,-1.69827 -3.35493,-0.94859 -0.382,-2.02865 -0.66866,-0.1474 -1.46284,-0.15777 -2.77147,0.33017 -1.46567,-0.69937 -0.27629,-1.28012 z"
       id="path4241"
       inkscape:connector-curvature="0"
       sodipodi:nodetypes="cccccccccccccccccccccccccccccccccc" />
    <g
       id="g4803"
       transform="matrix(0.65775624,0,0,0.65775624,-72.529193,-133.89345)">
      <g
         transform="matrix(0.48340278,0,0,0.48340278,-89.910967,-191.38839)"
         id="text6351-3-1"
         style="font-style:normal;font-weight:normal;font-size:95.20922089px;line-height:125%;font-family:sans-serif;letter-spacing:0px;word-spacing:0px;fill:#e2011c;fill-opacity:1;stroke:#ffffff;stroke-width:6.4342289;stroke-linecap:butt;stroke-linejoin:miter;stroke-miterlimit:4;stroke-dasharray:none;stroke-opacity:1">
        <path
           id="path7177"
           style="font-style:normal;font-variant:normal;font-weight:bold;font-stretch:normal;font-size:95.20922089px;line-height:125%;font-family:Raleway;-inkscape-font-specification:'Raleway, Bold';text-align:start;writing-mode:lr-tb;text-anchor:start;fill:#e2011c;fill-opacity:1;stroke:#ffffff;stroke-width:6.4342289;stroke-miterlimit:4;stroke-dasharray:none;stroke-opacity:1"
           d="M -340.65545,-386.61166 V -454.115 h 13.13888 v 67.50334 z"
           inkscape:connector-curvature="0" />
        <path
           id="path7179"
           style="font-style:normal;font-variant:normal;font-weight:bold;font-stretch:normal;font-size:95.20922089px;line-height:125%;font-family:Raleway;-inkscape-font-specification:'Raleway, Bold';text-align:start;writing-mode:lr-tb;text-anchor:start;fill:#e2011c;fill-opacity:1;stroke:#ffffff;stroke-width:6.4342289;stroke-miterlimit:4;stroke-dasharray:none;stroke-opacity:1"
           d="m -313.50594,-386.61166 v -67.59855 h 24.56398 q 8.2832,0 14.4718,2.66586 6.28381,2.66586 10.47301,7.2359 4.18921,4.57004 6.28381,10.75864 2.0946,6.09339 2.0946,13.04366 0,7.71195 -2.38023,13.99576 -2.28502,6.1886 -6.66464,10.66343 -4.37963,4.37963 -10.56822,6.85507 -6.0934,2.38023 -13.71013,2.38023 z m 44.65312,-33.89449 q 0,-4.85567 -1.33293,-8.94966 -1.33293,-4.094 -3.90357,-7.04549 -2.57065,-2.95148 -6.37902,-4.57004 -3.71316,-1.61855 -8.47362,-1.61855 h -11.42511 v 44.55791 h 11.42511 q 4.85567,0 8.56883,-1.71377 3.80837,-1.71376 6.28381,-4.66525 2.57064,-3.04669 3.90357,-7.14069 1.33293,-4.094 1.33293,-8.85446 z"
           inkscape:connector-curvature="0" />
      </g>
    </g>
    <g
       style="font-style:normal;font-weight:normal;font-size:95.20922089px;line-height:125%;font-family:sans-serif;letter-spacing:0px;word-spacing:0px;fill:#e2011c;fill-opacity:1;stroke:none;stroke-width:1px;stroke-linecap:butt;stroke-linejoin:miter;stroke-opacity:1"
       id="text6351-3"
       transform="matrix(0.31796119,0,0,0.31796119,-131.99824,-259.86341)">
      <path
         inkscape:connector-curvature="0"
         d="m -339.31978,-386.13562 v -67.50334 h 13.13887 v 67.50334 z"
         style="font-style:normal;font-variant:normal;font-weight:bold;font-stretch:normal;font-size:95.20922089px;line-height:125%;font-family:Raleway;-inkscape-font-specification:'Raleway, Bold';text-align:start;writing-mode:lr-tb;text-anchor:start;fill:#e2011c;fill-opacity:1;stroke:none;stroke-opacity:0.82795697"
         id="path7192" />
      <path
         inkscape:connector-curvature="0"
         d="m -312.17028,-386.13562 v -67.59855 h 24.56398 q 8.2832,0 14.4718,2.66586 6.28381,2.66586 10.47302,7.2359 4.1892,4.57004 6.28381,10.75864 2.0946,6.09339 2.0946,13.04367 0,7.71194 -2.38023,13.99575 -2.28502,6.1886 -6.66465,10.66344 -4.37962,4.37962 -10.56822,6.85506 -6.09339,2.38023 -13.71013,2.38023 z m 44.65313,-33.89448 q 0,-4.85567 -1.33293,-8.94967 -1.33293,-4.094 -3.90358,-7.04548 -2.57065,-2.95149 -6.37902,-4.57004 -3.71316,-1.61856 -8.47362,-1.61856 h -11.4251 v 44.55791 h 11.4251 q 4.85567,0 8.56883,-1.71376 3.80837,-1.71377 6.28381,-4.66525 2.57065,-3.0467 3.90358,-7.1407 1.33293,-4.09399 1.33293,-8.85445 z"
         style="font-style:normal;font-variant:normal;font-weight:bold;font-stretch:normal;font-size:95.20922089px;line-height:125%;font-family:Raleway;-inkscape-font-specification:'Raleway, Bold';text-align:start;writing-mode:lr-tb;text-anchor:start;fill:#e2011c;fill-opacity:1;stroke:none;stroke-opacity:0.82795697"
         id="path7194" />
    </g>
    <path
       inkscape:connector-curvature="0"
       style="fill:none;fill-opacity:1;fill-rule:evenodd;stroke:url(#linearGradient6456-3);stroke-width:1.41529596;stroke-linecap:butt;stroke-linejoin:miter;stroke-miterlimit:4;stroke-dasharray:none;stroke-opacity:1"
       d="m -221.30365,-417.93462 1.20707,0.0235 1.03927,-0.17401 0.95549,1.55678 0.91305,-0.25867 3.87512,0.14826 -1.22817,-1.11628 2.32432,1.87846 0.38238,1.49448 3.35571,0.71734 1.76878,2.30953 -1.85597,1.24733 1.99673,3.22691 1.97555,4.57311 -1.39884,1.33583 2.31685,3.86382 1.7962,2.30492 -0.42975,1.37264 -2.03784,0.66331 0.18935,2.19457 -0.80967,1.17949 0.30891,0.71046 -0.79967,1.70485 0.77851,2.03709 -1.18957,2.18425 -2.84623,0.6449 -3.57618,0.0356 -1.97803,2.61763 0.25784,3.47523 0.56925,1.78879 2.27699,2.36012 0.71122,3.08783 h -45.73133"
       id="path3581-3-4-8"
       sodipodi:nodetypes="ccccccccccccccccccccccccccccccccc" />
    <path
       style="fill:#003189;fill-opacity:1"
       d="m -225.73851,-414.187 c -0.0694,0.005 -0.13408,0.0991 -0.1832,0.30305 -0.0259,0.1075 -0.0883,0.23837 -0.13839,0.2906 -0.2037,0.21234 0.0585,3.16515 0.36839,4.15038 0.0555,0.17653 0.11179,0.38442 0.12545,0.46287 0.14707,0.84473 0.1898,1.11591 0.21804,1.39073 0.0181,0.17653 0.0644,0.36195 0.10256,0.41099 0.20247,0.2599 0.53371,-0.017 0.81045,-0.67771 0.0534,-0.12751 0.1199,-0.23248 0.14834,-0.23248 0.0284,0 0.0518,-0.0602 0.0518,-0.13388 0,-0.25963 0.32526,-1.03643 0.45998,-1.09909 0.0736,-0.0342 0.16164,-0.14576 0.19615,-0.24805 0.0536,-0.15875 0.10756,-0.18846 0.36739,-0.20238 0.18071,-0.01 0.33634,-0.0611 0.38232,-0.12662 0.0565,-0.0806 0.14457,-0.0984 0.32757,-0.0675 0.29111,0.0493 0.29852,0.0235 0.14038,-0.48052 -0.12088,-0.38526 -0.16287,-0.4135 -0.34051,-0.22833 -0.0785,0.0818 -0.22749,0.12401 -0.43808,0.12454 -0.47091,0.001 -1.07675,0.38695 -1.30329,0.82821 -0.0385,0.0749 -0.11485,0.13595 -0.16926,0.13595 -0.10483,0 -0.11516,-0.0364 -0.24293,-0.8199 -0.0448,-0.27461 -0.13803,-0.67575 -0.2071,-0.89152 -0.0692,-0.21609 -0.14085,-0.69714 -0.1593,-1.07106 -0.0514,-1.04236 -0.30841,-1.83264 -0.51674,-1.81832 z m 8.87513,0.40372 c -0.34282,0 -0.50051,0.33484 -0.73677,1.56924 -0.2384,1.2456 -0.20836,2.18321 0.10355,3.25055 0.194,0.66386 -0.14008,1.05521 -1.15096,1.35026 -0.17855,0.0521 -0.42434,0.1275 -0.54661,0.16709 -0.1605,0.052 -0.24711,0.0483 -0.31064,-0.0124 -0.0484,-0.0463 -0.25629,-0.17818 -0.46197,-0.29371 -0.56215,-0.31579 -0.90468,-0.67071 -0.85326,-0.88425 0.0838,-0.34823 0.25584,-0.51565 0.48686,-0.47431 0.14307,0.0256 0.24171,0.002 0.29969,-0.0706 0.0939,-0.11795 0.31279,-0.14551 0.37137,-0.0467 0.0925,0.156 0.53452,0.1483 0.65912,-0.0114 0.19814,-0.25399 0.23638,-0.72682 0.0777,-0.96001 -0.0732,-0.10757 -0.14623,-0.25988 -0.16229,-0.33834 -0.017,-0.083 -0.07,-0.13056 -0.12744,-0.11313 -0.0542,0.0164 -0.22041,0.0444 -0.36938,0.0623 -0.14897,0.0178 -0.4416,0.12968 -0.65015,0.24804 -0.20856,0.11837 -0.51471,0.2906 -0.68002,0.38297 -0.66259,0.37022 -1.10218,0.91792 -1.10218,1.37308 0,0.69765 0.59778,1.64811 1.03646,1.64811 0.10284,0 0.20575,0.0324 0.229,0.0716 0.0574,0.0967 1.25368,0.0908 1.65874,-0.008 0.31883,-0.078 0.3888,-0.10509 0.66807,-0.25842 0.0753,-0.0413 0.26655,-0.13108 0.42514,-0.19927 0.16476,-0.0708 0.35568,-0.22574 0.44505,-0.36221 0.086,-0.13137 0.19218,-0.25422 0.23597,-0.27192 0.0999,-0.0403 0.4428,0.52583 0.5705,0.56874 0,0 0.10816,0.12379 0.23099,-0.0716 0.0704,-0.112 0.20282,-0.19186 0.36739,-0.2221 0.37196,-0.0683 0.90772,-0.44334 1.01455,-0.70989 0.0494,-0.12328 0.13753,-0.26481 0.19615,-0.31551 0.0587,-0.0508 0.10702,-0.12911 0.10753,-0.17332 0.0113,-0.70156 0.63982,-0.88834 0.85227,-0.25323 0.25632,0.7663 0.8213,1.49243 1.1619,1.49243 0.0434,0 0.20773,0.0992 0.36541,0.22002 0.22958,0.1758 0.3279,0.21006 0.49284,0.17228 0.14976,-0.0343 0.27078,-0.005 0.44405,0.1069 0.13645,0.0879 0.29264,0.13513 0.3654,0.11106 0.1488,-0.0492 0.47932,-0.39647 0.37735,-0.39647 -0.0381,0 -0.10559,-0.0834 -0.15034,-0.18578 -0.0623,-0.14241 -0.11629,-0.17627 -0.22999,-0.14529 -0.20832,0.0568 -0.6797,-0.17793 -0.92993,-0.46288 -0.50469,-0.57473 -0.62825,-0.74215 -0.62825,-0.84793 0,-0.0619 -0.0278,-0.14333 -0.0607,-0.18059 -0.0329,-0.0373 -0.17437,-0.35578 -0.31463,-0.70885 -0.14026,-0.35307 -0.29787,-0.74402 -0.35046,-0.86764 -0.0526,-0.12362 -0.0956,-0.25618 -0.0956,-0.29476 0,-0.13466 -0.30834,-0.29015 -0.43211,-0.21794 -0.064,0.0373 -0.14757,0.0481 -0.18519,0.0239 -0.0376,-0.0242 -0.0887,0.014 -0.1135,0.0851 -0.0248,0.0711 -0.1323,0.24624 -0.23895,0.3892 -0.10665,0.14294 -0.19316,0.29596 -0.19316,0.33937 0,0.0434 -0.0249,0.0789 -0.0548,0.0789 -0.0298,0 -0.0893,0.13633 -0.13242,0.30305 -0.0774,0.29862 -0.51227,0.90392 -0.83136,1.15721 -0.18313,0.14536 -0.44682,0.0449 -0.58942,-0.22522 -0.0376,-0.0713 -0.0891,-0.14541 -0.1135,-0.16502 -0.29492,-0.23742 -0.40266,-1.98866 -0.22302,-3.62418 0.0457,-0.4163 -0.0613,-0.79811 -0.22403,-0.79811 z m -27.85601,0.74207 c -0.28468,-0.0625 -0.89068,0.40763 -1.1848,1.03889 -0.31968,0.68609 -1.05744,2.07927 -1.28439,2.42547 -0.10286,0.15692 -0.30779,0.46195 -0.455,0.67771 -0.1472,0.21577 -0.26877,0.42721 -0.27081,0.47015 -0.002,0.0429 -0.0682,0.13916 -0.14736,0.2138 -0.48537,0.45789 -0.44912,1.18635 0.0458,0.91643 0.25523,-0.13921 1.05537,-1.10391 1.05537,-1.27241 0,-0.0494 0.0772,-0.16525 0.17126,-0.25739 0.0941,-0.0921 0.17124,-0.2158 0.17124,-0.27504 0,-0.11643 0.20274,-0.5581 0.41419,-0.90189 0.0724,-0.11769 0.15317,-0.26185 0.17922,-0.3207 0.026,-0.0588 0.15979,-0.26777 0.29769,-0.46391 0.1379,-0.19616 0.30219,-0.46098 0.3654,-0.58847 0.13536,-0.27297 0.34471,-0.30463 0.45999,-0.0706 0.0435,0.0883 0.16516,0.25698 0.27081,0.37467 0.14112,0.15718 0.19972,0.30324 0.21904,0.55213 0.0177,0.22727 0.0734,0.38543 0.17026,0.47949 0.0794,0.0771 0.16488,0.21346 0.19016,0.30305 0.0253,0.0896 0.21273,0.50753 0.41618,0.92888 0.20346,0.42135 0.36939,0.81598 0.36939,0.87698 0,0.061 0.0772,0.1915 0.17124,0.28957 0.0941,0.0981 0.17125,0.23636 0.17125,0.30824 0,0.151 0.10795,0.25458 0.32259,0.30928 0.32001,0.0815 1.33867,-1.24993 1.43273,-1.87229 0.0732,-0.48453 0.43402,-0.91165 0.4341,-0.51374 2e-5,0.10557 0.0621,0.36133 0.13739,0.56771 0.0752,0.20638 0.13786,0.52709 0.13939,0.71301 0.004,0.4361 0.25275,0.76178 0.63025,0.82302 0.14237,0.0231 0.25687,0.0112 0.25687,-0.0259 0,-0.0368 0.0413,-0.0664 0.0926,-0.0664 0.16547,0 0.96967,-0.88069 1.14,-1.24854 0.1525,-0.32931 0.42674,-0.75848 0.60137,-0.94133 0.0867,-0.0908 0.20509,-0.28502 0.26384,-0.43175 0.11686,-0.29184 0.44716,-0.65903 0.59241,-0.65903 0.11367,0 0.21008,0.20065 0.34947,0.73065 0.2624,0.99769 0.34437,1.24656 0.49483,1.49658 0.0881,0.14633 0.16127,0.29051 0.16229,0.3207 0.0104,0.29368 0.6631,0.75731 1.43472,1.01917 0.5426,0.18414 1.09884,0.46079 1.2784,0.63516 0.45355,0.44047 1.61455,0.10792 2.7171,-0.77838 0.32432,-0.26072 0.40976,-0.26605 0.60136,-0.0364 0.0818,0.0981 0.18539,0.17851 0.23,0.17851 0.0446,0 0.16686,0.0694 0.27081,0.15464 0.391,0.3206 0.8961,0.50962 1.74536,0.65281 0.32141,0.0542 0.38374,0.048 0.51076,-0.0488 0.0811,-0.0618 0.23439,-0.0843 0.42216,-0.0623 0.3601,0.0423 1.20673,-0.29613 1.17385,-0.46911 -0.0323,-0.16987 -0.27803,-0.21998 -0.56751,-0.11624 -0.17614,0.0631 -0.29461,0.0727 -0.34748,0.027 -0.0486,-0.0421 -0.1447,-0.0451 -0.24293,-0.007 -0.27144,0.10442 -0.92837,-0.009 -1.08824,-0.18785 -0.087,-0.0974 -0.22299,-0.15773 -0.35943,-0.15879 -0.36212,-0.003 -1.00659,-0.69411 -1.00659,-1.07937 0,-0.10665 -0.0278,-0.21272 -0.0617,-0.23455 -0.0339,-0.0218 -0.083,-0.24046 -0.10852,-0.48572 -0.0984,-0.94597 -0.27519,-1.11825 -0.64617,-0.62997 -0.31019,0.40823 -0.42506,0.73926 -0.37337,1.07625 0.0241,0.15703 0.0161,0.28591 -0.0169,0.28645 -0.033,5.9e-4 -0.16697,0.0988 -0.29869,0.21898 -0.13172,0.12016 -0.31712,0.28906 -0.4112,0.37466 -0.32238,0.29333 -1.08433,0.38138 -1.42177,0.16399 -0.10832,-0.0698 -0.0528,-0.71698 0.0747,-0.8718 0.0621,-0.0754 0.33664,-0.38643 0.61033,-0.6912 l 0.49781,-0.55422 0.28376,0.0447 c 0.58083,0.0901 0.79175,-0.4493 0.2509,-0.6414 -0.52525,-0.18656 -1.01523,5.9e-4 -1.44766,0.5511 -0.0982,0.12502 -0.39219,0.44459 -0.65314,0.71093 -0.42707,0.43586 -0.47353,0.51081 -0.46496,0.74829 0.0321,0.88958 -0.51233,1.12821 -1.11213,0.4878 -0.19776,-0.21114 -0.42699,-0.40646 -0.50977,-0.43383 -0.0928,-0.0307 -0.16506,-0.12764 -0.18917,-0.25323 -0.0215,-0.11202 -0.0776,-0.21891 -0.12446,-0.23767 -0.0469,-0.0188 -0.10532,-0.16267 -0.12943,-0.31966 -0.0241,-0.15699 -0.0691,-0.29615 -0.10056,-0.30928 -0.086,-0.0358 -0.40633,-0.97638 -0.457,-1.34298 -0.23369,-1.69165 -0.93811,-1.68068 -1.87877,0.0301 -0.10937,0.19893 -0.26281,0.43334 -0.34051,0.51997 -0.0777,0.0866 -0.14138,0.17631 -0.14138,0.19927 0,0.0229 -0.12326,0.23903 -0.2738,0.48053 -0.15054,0.24149 -0.27281,0.45722 -0.27281,0.47948 0,0.044 -0.65224,0.50129 -0.71486,0.50129 -0.0211,0 -0.0378,-0.0607 -0.0378,-0.13493 0,-0.0743 -0.0404,-0.15054 -0.0896,-0.17021 -0.0892,-0.0356 -0.27276,-0.99248 -0.36242,-1.88785 -0.0279,-0.27832 -0.0932,-0.50268 -0.17324,-0.59884 -0.0704,-0.0847 -0.12744,-0.18162 -0.12744,-0.21483 0,-0.0332 -0.0406,-0.0602 -0.0896,-0.0602 -0.0929,0 -0.45799,0.64296 -0.45799,0.80641 0,0.0515 -0.0791,0.20426 -0.17523,0.33938 -0.29377,0.41269 -0.69619,1.22877 -0.74375,1.50904 -0.0247,0.14585 -0.0838,0.30669 -0.13142,0.35702 -0.0477,0.0503 -0.10829,0.15172 -0.13541,0.22625 l -0.0498,0.13596 -0.1583,-0.15568 c -0.0874,-0.0856 -0.20212,-0.24263 -0.25489,-0.34872 -0.0528,-0.10608 -0.21486,-0.41811 -0.35943,-0.69328 -0.14456,-0.27518 -0.33464,-0.72043 -0.42314,-0.99011 -0.0885,-0.2697 -0.22198,-0.55906 -0.2957,-0.64244 -0.0737,-0.0834 -0.20072,-0.3124 -0.28277,-0.50855 -0.082,-0.19614 -0.17751,-0.41136 -0.21207,-0.47948 -0.0346,-0.0681 -0.0627,-0.17036 -0.0627,-0.22625 0,-0.0559 -0.0922,-0.18223 -0.20511,-0.28126 -0.11289,-0.099 -0.2051,-0.20024 -0.2051,-0.22522 0,-0.15293 -0.0594,-0.23344 -0.15432,-0.25427 z"
       id="path4186"
       inkscape:connector-curvature="0"
       sodipodi:nodetypes="ccsscccssscccccccccscccccsscscccccssccccscsscccsscscccccssccccsccsscccscscssscsccsccssssccscssssccccccsscsssccccsssscssccsssssssccccccscsscscscccscccssccsccscccscssssssccsssccscccsscsccscscc" />
  </g>
</svg>
