<?xml version="1.0" encoding="UTF-8" standalone="no"?>
<svg
   xmlns:dc="http://purl.org/dc/elements/1.1/"
   xmlns:cc="http://creativecommons.org/ns#"
   xmlns:rdf="http://www.w3.org/1999/02/22-rdf-syntax-ns#"
   xmlns:svg="http://www.w3.org/2000/svg"
   xmlns="http://www.w3.org/2000/svg"
   xmlns:xlink="http://www.w3.org/1999/xlink"
   xmlns:sodipodi="http://sodipodi.sourceforge.net/DTD/sodipodi-0.dtd"
   xmlns:inkscape="http://www.inkscape.org/namespaces/inkscape"
   width="14.3mm"
   height="14.3mm"
   version="1.1"
   viewBox="0 0 50.6 50.6"
   id="svg53"
   sodipodi:docname="matchID-logo-square.svg"
   inkscape:version="0.92.3 (2405546, 2018-03-11)"
   inkscape:export-filename="/home/antoinefa/src/matchID/frontend/src/assets/img/matchID-logo-square.png"
   inkscape:export-xdpi="1818.8531"
   inkscape:export-ydpi="1818.8531">
  <metadata
     id="metadata57">
    <rdf:RDF>
      <cc:Work
         rdf:about="">
        <dc:format>image/svg+xml</dc:format>
        <dc:type
           rdf:resource="http://purl.org/dc/dcmitype/StillImage" />
      </cc:Work>
    </rdf:RDF>
  </metadata>
  <sodipodi:namedview
     pagecolor="#ffffff"
     bordercolor="#666666"
     borderopacity="1"
     objecttolerance="10"
     gridtolerance="10"
     guidetolerance="10"
     inkscape:pageopacity="0"
     inkscape:pageshadow="2"
     inkscape:window-width="1920"
     inkscape:window-height="1018"
     id="namedview55"
     showgrid="false"
     inkscape:zoom="24.700937"
     inkscape:cx="28.880718"
     inkscape:cy="37.918314"
     inkscape:window-x="0"
     inkscape:window-y="34"
     inkscape:window-maximized="1"
     inkscape:current-layer="svg53" />
  <defs
     id="defs19">
    <linearGradient
       id="a"
       x1="-420"
       x2="-460"
       y1="-401"
       y2="-401"
       gradientTransform="matrix(1.09,0,0,1.09,502.09035,464.1)"
       gradientUnits="userSpaceOnUse">
      <stop
         stop-color="#003189"
         offset="0"
         id="stop2" />
      <stop
         stop-color="#003189"
         stop-opacity="0"
         offset="1"
         id="stop4" />
    </linearGradient>
    <linearGradient
       id="c"
       x1="-399"
       x2="-202"
       y1="-393"
       y2="-393"
       gradientUnits="userSpaceOnUse">
      <stop
         stop-color="#fff"
         stop-opacity="0"
         offset="0"
         id="stop7" />
      <stop
         stop-color="#fff"
         stop-opacity=".596"
         offset=".355"
         id="stop9" />
      <stop
         stop-color="#fff"
         offset="1"
         id="stop11" />
    </linearGradient>
    <linearGradient
       id="b"
       x1="-202"
       x2="-253"
       y1="-386"
       y2="-386"
       gradientUnits="userSpaceOnUse">
      <stop
         stop-color="#003189"
         offset="0"
         id="stop14" />
      <stop
         stop-color="#003189"
         stop-opacity="0"
         offset="1"
         id="stop16" />
    </linearGradient>
    <linearGradient
       id="a-3"
       x1="-420"
       x2="-460"
       y1="-401"
       y2="-401"
       gradientTransform="matrix(1.0900001,0,0,1.0900001,502.09036,464.10002)"
       gradientUnits="userSpaceOnUse"
       xlink:href="#c">
      <stop
         stop-color="#003189"
         offset="0"
         id="stop2-6" />
      <stop
         stop-color="#003189"
         stop-opacity="0"
         offset="1"
         id="stop4-7" />
    </linearGradient>
    <linearGradient
       inkscape:collect="always"
       xlink:href="#c"
       id="linearGradient864"
       x1="-4.7546511"
       y1="25.479626"
       x2="50.319702"
       y2="25.479626"
       gradientUnits="userSpaceOnUse" />
  </defs>
  <path
     inkscape:connector-curvature="0"
     style="fill:url(#linearGradient864);fill-opacity:1;stroke:url(#a-3);stroke-width:1.42024255;stroke-miterlimit:4;stroke-dasharray:none"
     id="path47-5"
     d="m 30.09035,1.0000001 1.21,0.0235 1.04,-0.17399994 0.954999,1.56000004 0.913001,-0.259 3.88,0.148 -1.23,-1.12 2.32,1.88 0.382,1.4900001 3.36,0.717 1.77,2.3100001 -1.86,1.25 2,3.2299996 1.98,4.57 -1.4,1.34 2.32,3.860001 1.800001,2.3 -0.430001,1.369999 -2.04,0.663001 0.189,2.19 -0.81,1.179999 0.309,0.710001 -0.8,1.7 0.779001,2.04 -1.190001,2.18 -2.85,0.645 -3.58,0.03559 -1.98,2.62 0.258,3.480001 0.569,1.79 2.28,2.359999 0.711,3.090001 H -4.7546509 l 0.162756,-49.1391211"
     sodipodi:nodetypes="cccccccccccccccccccccccccccccccccc" />
  <path
     inkscape:connector-curvature="0"
     style="fill:none;stroke:url(#a);stroke-width:1.4202426;stroke-miterlimit:4;stroke-dasharray:none"
     id="path47"
     d="m 30.090349,1 1.21,0.0235 1.04,-0.174 0.955,1.56 0.913,-0.259 3.88,0.148 -1.23,-1.12 2.32,1.88 0.382,1.49 3.36,0.717 1.77,2.31 -1.86,1.25 2,3.23 1.98,4.57 -1.4,1.34 2.32,3.86 1.8,2.3 -0.43,1.37 -2.04,0.663 0.189,2.19 -0.81,1.18 0.309,0.71 -0.8,1.7 0.779,2.04 -1.19,2.18 -2.85,0.645 -3.58,0.0356 -1.98,2.62 0.258,3.48 0.569,1.79 2.28,2.36 0.711,3.09 H -4.7546509" />
  <g
     transform="matrix(0.75164753,0,0,0.75164753,204.42594,323.2406)"
     aria-label="ID"
     style="font-style:normal;font-variant:normal;font-weight:normal;font-stretch:normal;font-size:25.91136551px;line-height:125%;font-family:Calibri;-inkscape-font-specification:Calibri;letter-spacing:0px;word-spacing:0px;fill:#e2011c;fill-opacity:1;stroke:none;stroke-width:1.24555445px;stroke-linecap:butt;stroke-linejoin:miter;stroke-opacity:1"
     id="text33-0">
    <path
       inkscape:connector-curvature="0"
       d="m -248.43701,-385.54126 v -18.13796 h 3.67941 v 18.13796 z"
       style="font-style:normal;font-variant:normal;font-weight:bold;font-stretch:normal;font-family:Marianne;-inkscape-font-specification:'Marianne Bold';letter-spacing:0px;fill:#e2011c;fill-opacity:1;stroke-width:1.24555445px"
       id="path3887" />
    <path
       inkscape:connector-curvature="0"
       d="m -239.42876,-385.54126 v -18.13796 h 7.12562 q 2.15065,0 3.93853,0.72552 1.78789,0.72552 3.03163,1.96927 1.26966,1.24374 1.96926,2.90207 0.69961,1.63242 0.69961,3.47212 0,1.83971 -0.69961,3.49804 -0.6996,1.63241 -1.96926,2.87616 -1.24374,1.24374 -3.03163,1.96926 -1.78788,0.72552 -3.93853,0.72552 z m 7.17745,-14.79539 h -3.49804 v 11.45282 h 3.49804 q 1.26965,0 2.33202,-0.44049 1.06237,-0.44049 1.81379,-1.21783 0.77735,-0.77734 1.21784,-1.8138 0.44049,-1.06236 0.44049,-2.25429 0,-1.21783 -0.44049,-2.25429 -0.44049,-1.06236 -1.21784,-1.81379 -0.75142,-0.77734 -1.81379,-1.21784 -1.06237,-0.44049 -2.33202,-0.44049 z"
       style="font-style:normal;font-variant:normal;font-weight:bold;font-stretch:normal;font-family:Marianne;-inkscape-font-specification:'Marianne Bold';letter-spacing:0px;fill:#e2011c;fill-opacity:1;stroke-width:1.24555445px"
       id="path3889" />
  </g>
  <g
     transform="matrix(0.43987627,0,0,0.43987627,147.96021,186.25857)"
     aria-label="match"
     style="font-style:normal;font-variant:normal;font-weight:normal;font-stretch:normal;font-size:25.91136551px;line-height:125%;font-family:Calibri;-inkscape-font-specification:Calibri;letter-spacing:-1.0541513px;word-spacing:0px;fill:#003189;fill-opacity:1;stroke:none;stroke-width:2.12836647px;stroke-linecap:butt;stroke-linejoin:miter;stroke-opacity:1"
     id="text33-0-7">
    <path
       inkscape:connector-curvature="0"
       d="m -329.00065,-385.54126 v -13.05933 h 3.29075 v 0.98463 q 0.64778,-0.64778 1.52877,-1.06236 0.88098,-0.4405 2.07291,-0.4405 1.26965,0 2.33202,0.59597 1.08828,0.57005 1.73606,1.68423 0.72552,-0.88098 1.73606,-1.58059 1.01055,-0.69961 2.53932,-0.69961 1.01054,0 1.89153,0.36276 0.88098,0.33685 1.52877,1.03646 0.64778,0.67369 1.01054,1.73606 0.38867,1.03645 0.38867,2.40976 v 8.03252 h -3.31665 v -7.90297 q 0,-1.19192 -0.62188,-1.86561 -0.59596,-0.69961 -1.71015,-0.69961 -1.03645,0 -1.68424,0.62187 -0.64778,0.59596 -1.03645,1.24375 0.0259,0.12955 0.0259,0.28502 0,0.15547 0,0.28503 v 8.03252 h -3.34256 v -7.90297 q 0,-1.19192 -0.59597,-1.86561 -0.59596,-0.69961 -1.71015,-0.69961 -1.11419,0 -1.76197,0.67369 -0.64778,0.64779 -1.01054,1.26966 v 8.52484 z"
       style="font-style:normal;font-variant:normal;font-weight:bold;font-stretch:normal;font-family:Marianne;-inkscape-font-specification:'Marianne Bold';letter-spacing:0px;fill:#003189;fill-opacity:1;stroke-width:2.12836647px"
       id="path3892" />
    <path
       inkscape:connector-curvature="0"
       d="m -301.43298,-385.02303 q -1.94335,0 -3.1871,-1.06237 -1.21783,-1.06236 -1.21783,-2.90207 0,-1.47695 1.11419,-2.56523 1.1401,-1.08827 3.23892,-1.42512 l 3.93853,-0.6737 v -0.33684 q 0,-1.03646 -0.69961,-1.63242 -0.69961,-0.62187 -1.8138,-0.62187 -0.95872,0 -1.73606,0.41458 -0.75143,0.38867 -1.19192,1.1401 l -2.43567,-1.83971 q 0.88099,-1.19192 2.2802,-1.89153 1.42513,-0.69961 3.1871,-0.69961 1.39921,0 2.48749,0.41459 1.08828,0.38867 1.78789,1.08827 0.72551,0.6737 1.08827,1.63242 0.36276,0.93281 0.36276,1.99518 v 8.4471 h -3.31665 v -1.21783 q -0.62188,0.77734 -1.68424,1.24374 -1.06237,0.49232 -2.20247,0.49232 z m -1.1401,-4.094 q 0,0.62187 0.49232,1.03646 0.49231,0.41458 1.32148,0.41458 1.11419,0 1.91744,-0.51823 0.80325,-0.51823 1.29557,-1.32148 v -1.78788 l -3.08346,0.54414 q -1.03645,0.18138 -1.50285,0.59596 -0.4405,0.41458 -0.4405,1.03645 z"
       style="font-style:normal;font-variant:normal;font-weight:bold;font-stretch:normal;font-family:Marianne;-inkscape-font-specification:'Marianne Bold';letter-spacing:0px;fill:#003189;fill-opacity:1;stroke-width:2.12836647px"
       id="path3894" />
    <path
       inkscape:connector-curvature="0"
       d="m -289.65869,-390.30895 v -5.28592 h -2.43567 v -3.00572 h 2.43567 v -3.26483 h 3.31665 v 3.26483 h 3.99035 v 3.00572 h -3.99035 v 5.28592 q 0,1.08828 0.54414,1.55468 0.57005,0.46641 1.52877,0.46641 0.6737,0 1.1401,-0.0777 0.46641,-0.0777 0.80325,-0.20729 v 2.87616 q -0.49231,0.20729 -1.11418,0.31094 -0.59597,0.10364 -1.39922,0.10364 -2.43567,0 -3.62759,-1.32148 -1.19192,-1.32148 -1.19192,-3.70532 z"
       style="font-style:normal;font-variant:normal;font-weight:bold;font-stretch:normal;font-family:Marianne;-inkscape-font-specification:'Marianne Bold';letter-spacing:0px;fill:#003189;fill-opacity:1;stroke-width:2.12836647px"
       id="path3896" />
    <path
       inkscape:connector-curvature="0"
       d="m -273.38716,-388.1324 q 0.95872,0 1.68424,-0.41458 0.75143,-0.44049 1.21783,-1.11419 l 2.61705,1.99518 q -0.9069,1.19192 -2.33202,1.91744 -1.39922,0.72552 -3.1871,0.72552 -1.68424,0 -3.03163,-0.57005 -1.34739,-0.57005 -2.2802,-1.52877 -0.9069,-0.95872 -1.39922,-2.22838 -0.49231,-1.29557 -0.49231,-2.72069 0,-1.42513 0.49231,-2.69479 0.49232,-1.29556 1.39922,-2.25428 0.93281,-0.95873 2.2802,-1.52878 1.34739,-0.57005 3.03163,-0.57005 1.78788,0 3.1871,0.72552 1.42512,0.72552 2.33202,1.91744 l -2.61705,1.99518 q -0.4664,-0.6737 -1.21783,-1.08828 -0.72552,-0.44049 -1.73606,-0.44049 -1.60651,0 -2.66888,1.11419 -1.06236,1.11419 -1.06236,2.82434 0,1.71015 1.06236,2.82433 1.08828,1.11419 2.7207,1.11419 z"
       style="font-style:normal;font-variant:normal;font-weight:bold;font-stretch:normal;font-family:Marianne;-inkscape-font-specification:'Marianne Bold';letter-spacing:0px;fill:#003189;fill-opacity:1;stroke-width:2.12836647px"
       id="path3898" />
    <path
       inkscape:connector-curvature="0"
       d="m -265.38622,-385.54126 v -19.43352 h 3.29074 v 7.41065 q 0.6737,-0.64779 1.60651,-1.08828 0.95872,-0.46641 2.25429,-0.46641 1.06236,0 1.96926,0.36276 0.93281,0.36276 1.60651,1.08828 0.6996,0.72552 1.08827,1.8138 0.41458,1.08827 0.41458,2.53931 v 7.77341 h -3.34256 v -7.64385 q 0,-1.29557 -0.6737,-2.047 -0.67369,-0.77734 -1.89153,-0.77734 -1.24374,0 -1.96926,0.67369 -0.69961,0.64779 -1.06237,1.26966 v 8.52484 z"
       style="font-style:normal;font-variant:normal;font-weight:bold;font-stretch:normal;font-family:Marianne;-inkscape-font-specification:'Marianne Bold';letter-spacing:0px;fill:#003189;fill-opacity:1;stroke-width:2.12836647px"
       id="path3900" />
  </g>
</svg>
