<svg width="14.3mm" height="14.3mm" version="1.1" viewBox="0 0 50.6 50.6" xmlns="http://www.w3.org/2000/svg" xmlns:xlink="http://www.w3.org/1999/xlink">
 <defs>
  <linearGradient id="a" x1="-420" x2="-460" y1="-401" y2="-401" gradientTransform="matrix(1.09 0 0 1.09 251 45.1)" gradientUnits="userSpaceOnUse">
   <stop stop-color="#003189" offset="0"/>
   <stop stop-color="#003189" stop-opacity="0" offset="1"/>
  </linearGradient>
  <linearGradient id="c" x1="-399" x2="-202" y1="-393" y2="-393" gradientUnits="userSpaceOnUse">
   <stop stop-color="#fff" stop-opacity="0" offset="0"/>
   <stop stop-color="#fff" stop-opacity=".596" offset=".355"/>
   <stop stop-color="#fff" offset="1"/>
  </linearGradient>
  <linearGradient id="b" x1="-202" x2="-253" y1="-386" y2="-386" gradientUnits="userSpaceOnUse">
   <stop stop-color="#003189" offset="0"/>
   <stop stop-color="#003189" stop-opacity="0" offset="1"/>
  </linearGradient>
 </defs>
 <g transform="translate(252 419)">
  <g>
   <text x="-600.99713" y="-328.62854" fill="#e2011c" font-family="sans-serif" letter-spacing="0px" stroke-width="1px" word-spacing="0px" style="line-height:0%" xml:space="preserve"><tspan x="-600.99713" y="-328.62854" fill="#e2011c" font-family="Raleway" font-size="44.4px" style="line-height:125%"> <tspan fill="#003189"/></tspan></text>
   <rect x="-252" y="-419" width="50.6" height="50.6" color="#000000" color-rendering="auto" fill="url(#b)" image-rendering="auto" shape-rendering="auto" solid-color="#000000" style="isolation:auto;mix-blend-mode:normal"/>
   <path d="m-219-419h-32.9l0.0893 50.6h41.2l-0.684-3.07-2.28-2.44-0.569-1.85-0.258-3.59 1.98-2.71 3.58-0.0358 2.85-0.667 1.19-2.26-0.779-2.11 0.8-1.76-0.31-0.735 0.809-1.22-0.189-2.27 2.04-0.687 0.429-1.42-1.8-2.38-2.32-3.99 1.4-1.38-1.98-4.73-2-3.34 1.86-1.29-1.77-1.7-3.35-0.949-0.382-2.03-0.669-0.147-1.46-0.158-2.77 0.33-1.47-0.699-0.276-1.28z" color="#000000" color-rendering="auto" fill="url(#c)" fill-rule="evenodd" image-rendering="auto" shape-rendering="auto" solid-color="#000000" style="isolation:auto;mix-blend-mode:normal"/>
  </g>
  <g transform="matrix(.658 0 0 .658 -72.5 -134)">
   <g transform="matrix(.483 0 0 .483 -89.9 -191)" fill="#e2011c" stroke="#fff" stroke-width="6.43">
    <path d="m-341-387v-67.5h13.1v67.5z"/>
    <path d="m-314-387v-67.6h24.6q8.28 0 14.5 2.67 6.28 2.67 10.5 7.24 4.19 4.57 6.28 10.8 2.09 6.09 2.09 13 0 7.71-2.38 14-2.29 6.19-6.66 10.7-4.38 4.38-10.6 6.86-6.09 2.38-13.7 2.38zm44.7-33.9q0-4.86-1.33-8.95-1.33-4.09-3.9-7.05-2.57-2.95-6.38-4.57-3.71-1.62-8.47-1.62h-11.4v44.6h11.4q4.86 0 8.57-1.71 3.81-1.71 6.28-4.67 2.57-3.05 3.9-7.14t1.33-8.85z"/>
   </g>
  </g>
  <g transform="matrix(.318 0 0 .318 -132 -260)" fill="#e2011c" stroke-width="1px">
   <path d="m-339-386v-67.5h13.1v67.5z"/>
   <path d="m-312-386v-67.6h24.6q8.28 0 14.5 2.67 6.28 2.67 10.5 7.24 4.19 4.57 6.28 10.8 2.09 6.09 2.09 13 0 7.71-2.38 14-2.29 6.19-6.66 10.7-4.38 4.38-10.6 6.86-6.09 2.38-13.7 2.38zm44.7-33.9q0-4.86-1.33-8.95t-3.9-7.05q-2.57-2.95-6.38-4.57-3.71-1.62-8.47-1.62h-11.4v44.6h11.4q4.86 0 8.57-1.71 3.81-1.71 6.28-4.67 2.57-3.05 3.9-7.14 1.33-4.09 1.33-8.85z"/>
  </g>
  <path d="m-221-418 1.21 0.0235 1.04-0.174 0.955 1.56 0.913-0.259 3.88 0.148-1.23-1.12 2.32 1.88 0.382 1.49 3.36 0.717 1.77 2.31-1.86 1.25 2 3.23 1.98 4.57-1.4 1.34 2.32 3.86 1.8 2.3-0.43 1.37-2.04 0.663 0.189 2.19-0.81 1.18 0.309 0.71-0.8 1.7 0.779 2.04-1.19 2.18-2.85 0.645-3.58 0.0356-1.98 2.62 0.258 3.48 0.569 1.79 2.28 2.36 0.711 3.09h-45.7" fill="none" stroke="url(#a)" stroke-width="1.42"/>
  <path d="m-226-414c-0.0694 5e-3 -0.134 0.0991-0.183 0.303-0.0259 0.108-0.0883 0.238-0.138 0.291-0.204 0.212 0.0585 3.17 0.368 4.15 0.0555 0.177 0.112 0.384 0.125 0.463 0.147 0.845 0.19 1.12 0.218 1.39 0.0181 0.177 0.0644 0.362 0.103 0.411 0.202 0.26 0.534-0.017 0.81-0.678 0.0534-0.128 0.12-0.232 0.148-0.232 0.0284 0 0.0518-0.0602 0.0518-0.134 0-0.26 0.325-1.04 0.46-1.1 0.0736-0.0342 0.162-0.146 0.196-0.248 0.0536-0.159 0.108-0.188 0.367-0.202 0.181-0.01 0.336-0.0611 0.382-0.127 0.0565-0.0806 0.145-0.0984 0.328-0.0675 0.291 0.0493 0.299 0.0235 0.14-0.481-0.121-0.385-0.163-0.414-0.341-0.228-0.0785 0.0818-0.227 0.124-0.438 0.125-0.471 1e-3 -1.08 0.387-1.3 0.828-0.0385 0.0749-0.115 0.136-0.169 0.136-0.105 0-0.115-0.0364-0.243-0.82-0.0448-0.275-0.138-0.676-0.207-0.892-0.0692-0.216-0.141-0.697-0.159-1.07-0.0514-1.04-0.308-1.83-0.517-1.82zm8.88 0.404c-0.343 0-0.501 0.335-0.737 1.57-0.238 1.25-0.208 2.18 0.104 3.25 0.194 0.664-0.14 1.06-1.15 1.35-0.179 0.0521-0.424 0.128-0.547 0.167-0.16 0.052-0.247 0.0483-0.311-0.0124-0.0484-0.0463-0.256-0.178-0.462-0.294-0.562-0.316-0.905-0.671-0.853-0.884 0.0838-0.348 0.256-0.516 0.487-0.474 0.143 0.0256 0.242 2e-3 0.3-0.0706 0.0939-0.118 0.313-0.146 0.371-0.0467 0.0925 0.156 0.535 0.148 0.659-0.0114 0.198-0.254 0.236-0.727 0.0777-0.96-0.0732-0.108-0.146-0.26-0.162-0.338-0.017-0.083-0.07-0.131-0.127-0.113-0.0542 0.0164-0.22 0.0444-0.369 0.0623-0.149 0.0178-0.442 0.13-0.65 0.248-0.209 0.118-0.515 0.291-0.68 0.383-0.663 0.37-1.1 0.918-1.1 1.37 0 0.698 0.598 1.65 1.04 1.65 0.103 0 0.206 0.0324 0.229 0.0716 0.0574 0.0967 1.25 0.0908 1.66-8e-3 0.319-0.078 0.389-0.105 0.668-0.258 0.0753-0.0413 0.267-0.131 0.425-0.199 0.165-0.0708 0.356-0.226 0.445-0.362 0.086-0.131 0.192-0.254 0.236-0.272 0.0999-0.0403 0.443 0.526 0.57 0.569 0 0 0.108 0.124 0.231-0.0716 0.0704-0.112 0.203-0.192 0.367-0.222 0.372-0.0683 0.908-0.443 1.01-0.71 0.0494-0.123 0.138-0.265 0.196-0.316 0.0587-0.0508 0.107-0.129 0.108-0.173 0.0113-0.702 0.64-0.888 0.852-0.253 0.256 0.766 0.821 1.49 1.16 1.49 0.0434 0 0.208 0.0992 0.365 0.22 0.23 0.176 0.328 0.21 0.493 0.172 0.15-0.0343 0.271-5e-3 0.444 0.107 0.136 0.0879 0.293 0.135 0.365 0.111 0.149-0.0492 0.479-0.396 0.377-0.396-0.0381 0-0.106-0.0834-0.15-0.186-0.0623-0.142-0.116-0.176-0.23-0.145-0.208 0.0568-0.68-0.178-0.93-0.463-0.505-0.575-0.628-0.742-0.628-0.848 0-0.0619-0.0278-0.143-0.0607-0.181-0.0329-0.0373-0.174-0.356-0.315-0.709s-0.298-0.744-0.35-0.868c-0.0526-0.124-0.0956-0.256-0.0956-0.295 0-0.135-0.308-0.29-0.432-0.218-0.064 0.0373-0.148 0.0481-0.185 0.0239-0.0376-0.0242-0.0887 0.014-0.114 0.0851s-0.132 0.246-0.239 0.389c-0.107 0.143-0.193 0.296-0.193 0.339 0 0.0434-0.0249 0.0789-0.0548 0.0789-0.0298 0-0.0893 0.136-0.132 0.303-0.0774 0.299-0.512 0.904-0.831 1.16-0.183 0.145-0.447 0.0449-0.589-0.225-0.0376-0.0713-0.0891-0.145-0.114-0.165-0.295-0.237-0.403-1.99-0.223-3.62 0.0457-0.416-0.0613-0.798-0.224-0.798zm-27.9 0.742c-0.285-0.0625-0.891 0.408-1.18 1.04-0.32 0.686-1.06 2.08-1.28 2.43-0.103 0.157-0.308 0.462-0.455 0.678-0.147 0.216-0.269 0.427-0.271 0.47-2e-3 0.0429-0.0682 0.139-0.147 0.214-0.485 0.458-0.449 1.19 0.0458 0.916 0.255-0.139 1.06-1.1 1.06-1.27 0-0.0494 0.0772-0.165 0.171-0.257 0.0941-0.0921 0.171-0.216 0.171-0.275 0-0.116 0.203-0.558 0.414-0.902 0.0724-0.118 0.153-0.262 0.179-0.321 0.026-0.0588 0.16-0.268 0.298-0.464 0.138-0.196 0.302-0.461 0.365-0.588 0.135-0.273 0.345-0.305 0.46-0.0706 0.0435 0.0883 0.165 0.257 0.271 0.375 0.141 0.157 0.2 0.303 0.219 0.552 0.0177 0.227 0.0734 0.385 0.17 0.479 0.0794 0.0771 0.165 0.213 0.19 0.303 0.0253 0.0896 0.213 0.508 0.416 0.929 0.203 0.421 0.369 0.816 0.369 0.877s0.0772 0.192 0.171 0.29c0.0941 0.0981 0.171 0.236 0.171 0.308 0 0.151 0.108 0.255 0.323 0.309 0.32 0.0815 1.34-1.25 1.43-1.87 0.0732-0.485 0.434-0.912 0.434-0.514 2e-5 0.106 0.0621 0.361 0.137 0.568 0.0752 0.206 0.138 0.527 0.139 0.713 4e-3 0.436 0.253 0.762 0.63 0.823 0.142 0.0231 0.257 0.0112 0.257-0.0259 0-0.0368 0.0413-0.0664 0.0926-0.0664 0.165 0 0.97-0.881 1.14-1.25 0.152-0.329 0.427-0.758 0.601-0.941 0.0867-0.0908 0.205-0.285 0.264-0.432 0.117-0.292 0.447-0.659 0.592-0.659 0.114 0 0.21 0.201 0.349 0.731 0.262 0.998 0.344 1.25 0.495 1.5 0.0881 0.146 0.161 0.291 0.162 0.321 0.0104 0.294 0.663 0.757 1.43 1.02 0.543 0.184 1.1 0.461 1.28 0.635 0.454 0.44 1.61 0.108 2.72-0.778 0.324-0.261 0.41-0.266 0.601-0.0364 0.0818 0.0981 0.185 0.179 0.23 0.179 0.0446 0 0.167 0.0694 0.271 0.155 0.391 0.321 0.896 0.51 1.75 0.653 0.321 0.0542 0.384 0.048 0.511-0.0488 0.0811-0.0618 0.234-0.0843 0.422-0.0623 0.36 0.0423 1.21-0.296 1.17-0.469-0.0323-0.17-0.278-0.22-0.568-0.116-0.176 0.0631-0.295 0.0727-0.347 0.027-0.0486-0.0421-0.145-0.0451-0.243-7e-3 -0.271 0.104-0.928-9e-3 -1.09-0.188-0.087-0.0974-0.223-0.158-0.359-0.159-0.362-3e-3 -1.01-0.694-1.01-1.08 0-0.107-0.0278-0.213-0.0617-0.235-0.0339-0.0218-0.083-0.24-0.109-0.486-0.0984-0.946-0.275-1.12-0.646-0.63-0.31 0.408-0.425 0.739-0.373 1.08 0.0241 0.157 0.0161 0.286-0.0169 0.286-0.033 5.9e-4 -0.167 0.0988-0.299 0.219-0.132 0.12-0.317 0.289-0.411 0.375-0.322 0.293-1.08 0.381-1.42 0.164-0.108-0.0698-0.0528-0.717 0.0747-0.872 0.0621-0.0754 0.337-0.386 0.61-0.691l0.498-0.554 0.284 0.0447c0.581 0.0901 0.792-0.449 0.251-0.641-0.525-0.187-1.02 5.9e-4 -1.45 0.551-0.0982 0.125-0.392 0.445-0.653 0.711-0.427 0.436-0.474 0.511-0.465 0.748 0.0321 0.89-0.512 1.13-1.11 0.488-0.198-0.211-0.427-0.406-0.51-0.434-0.0928-0.0307-0.165-0.128-0.189-0.253-0.0215-0.112-0.0776-0.219-0.124-0.238-0.0469-0.0188-0.105-0.163-0.129-0.32-0.0241-0.157-0.0691-0.296-0.101-0.309-0.086-0.0358-0.406-0.976-0.457-1.34-0.234-1.69-0.938-1.68-1.88 0.0301-0.109 0.199-0.263 0.433-0.341 0.52-0.0777 0.0866-0.141 0.176-0.141 0.199 0 0.0229-0.123 0.239-0.274 0.481-0.151 0.241-0.273 0.457-0.273 0.479 0 0.044-0.652 0.501-0.715 0.501-0.0211 0-0.0378-0.0607-0.0378-0.135 0-0.0743-0.0404-0.151-0.0896-0.17-0.0892-0.0356-0.273-0.992-0.362-1.89-0.0279-0.278-0.0932-0.503-0.173-0.599-0.0704-0.0847-0.127-0.182-0.127-0.215 0-0.0332-0.0406-0.0602-0.0896-0.0602-0.0929 0-0.458 0.643-0.458 0.806 0 0.0515-0.0791 0.204-0.175 0.339-0.294 0.413-0.696 1.23-0.744 1.51-0.0247 0.146-0.0838 0.307-0.131 0.357-0.0477 0.0503-0.108 0.152-0.135 0.226l-0.0498 0.136-0.158-0.156c-0.0874-0.0856-0.202-0.243-0.255-0.349-0.0528-0.106-0.215-0.418-0.359-0.693-0.145-0.275-0.335-0.72-0.423-0.99-0.0885-0.27-0.222-0.559-0.296-0.642-0.0737-0.0834-0.201-0.312-0.283-0.509-0.082-0.196-0.178-0.411-0.212-0.479-0.0346-0.0681-0.0627-0.17-0.0627-0.226 0-0.0559-0.0922-0.182-0.205-0.281-0.113-0.099-0.205-0.2-0.205-0.225 0-0.153-0.0594-0.233-0.154-0.254z" fill="#003189"/>
 </g>
</svg>
