<svg width="315" height="315" version="1.0" xmlns="http://www.w3.org/2000/svg">
 <path d="m190 30.7c9.94 6 18.4 7.91 28.4 29.7 14.6 31.6 14.5 38.7 20.6 27.7-1.17 2.86-2.27 5.68-1.41 7.79 1.22 1.29 2.44 0.798 3.67 0-0.719 1.05 0.251 5.2 1.97 2.02 1.22-2.26 1.13-2.31 1.13-2.31 0.852 1.99 0.397 4.46 0.564 5.19 1.69 2.13 3.38-1.5 5.08-5.19 0.377 3.11 0.125 6.51-2.26 9.81 5.62 2.38 5.75-4.45 4.51-9.23 1.87 3.06 3.36 6.49 2.26 12.4 0.658 1.16 1.32-1.42 1.97-2.31-0.19 1.7-0.00295 4.77-1.55 5.26 1.01 0.363 2.28 1.41 4.16-0.721 0.191 5.18-1.31 8.71-8.39 7.21 2.11 1.41 2.44 11.3 6.35 4.11 1.4 2.15-1.03 3.59-2.19 8-0.69 10.3-7.26 8.99-11 13.3-0.965 4.64-1.78 5.94-3.22 9.37-0.92 2.19 5.59 7.04 5.84-2.41 1.07 9.51-7.16 5.92-10.1 10.4-1.04 1.03-2.2 1.83-3.49 2.38-8.83 5.45-13.7 20.3-17.5 22.1-1.29 1.33-9.51 1.18-13.8 0.433-2.17 5.26-3.87 7.84-6.98 10.7-3.43 7.49-6.13 24.8 4.44 33.5 17.5 14.3 22.9 18.5 45.3 23.3 49.8 10.6 45.1 37.1 54.6 58.5l-275-0.229c8.13-20.2 4.33-47 54.4-59.4 18.2-4.49 25.7-8.71 41-22 9.56-8.28 7.62-25.2 5.5-34.3-7.62-0.849-11.6-2.95-13-5.91-3.65 0.0024-7.61 0.671-7.62-7.14-9.87 4.64-14.3-3.13-18.9-10.7-4.51-2.25-10.1-1.4-11.6-12.3l-1.27-3.53c-2.09-2.98-1.12-7.15-0.917-11 1.34 2.05 2.12 2.55 3.46 3.32-10.1-12.1-4.05-19.5-5.43-29.1 2.49 1.4 4.55 0.696 6.63-0.505l-4.37-1.01s18.1-0.343 8.46-1.44c-7.44-0.848-7.05-5.12-7.05-5.12 2.17 1.23 4.11 2.88 6.28 0.937-0.014-2.57 0.75-4.66 3.17-5.7-3.06-4.58 1.9-15.8-0.423-20.8 1.38 0.979 2.31 3.26 4.72 1.23 1.54-4.14 2.36-5.64 4.65-6.34 1.37-4.14 3.45-7.06 6.7-7.93 0 0 4.25-13.7 7.19-18.5 7.17-11.8 10.2-14.3 23.8-23 13.3-8.51 23.7-8.99 30.4-5.55 3.82 1.97 6.31 2.24 8.04 2.24 4.97 0 8.8-5.23 22.4 2.96z" fill="#fff" fill-rule="evenodd"/>
</svg>
