<?xml version="1.0" encoding="UTF-8" standalone="no"?>
<!-- Created with Inkscape (http://www.inkscape.org/) -->

<svg
   xmlns:dc="http://purl.org/dc/elements/1.1/"
   xmlns:cc="http://creativecommons.org/ns#"
   xmlns:rdf="http://www.w3.org/1999/02/22-rdf-syntax-ns#"
   xmlns:svg="http://www.w3.org/2000/svg"
   xmlns="http://www.w3.org/2000/svg"
   xmlns:sodipodi="http://sodipodi.sourceforge.net/DTD/sodipodi-0.dtd"
   xmlns:inkscape="http://www.inkscape.org/namespaces/inkscape"
   width="74.127785mm"
   height="60.214405mm"
   viewBox="0 0 74.127785 60.214405"
   version="1.1"
   id="svg1543"
   inkscape:version="0.92.3 (2405546, 2018-03-11)"
   sodipodi:docname="layers.svg">
  <defs
     id="defs1537" />
  <sodipodi:namedview
     id="base"
     pagecolor="#ffffff"
     bordercolor="#666666"
     borderopacity="1.0"
     inkscape:pageopacity="0.0"
     inkscape:pageshadow="2"
     inkscape:zoom="0.35"
     inkscape:cx="387.22685"
     inkscape:cy="-480.49472"
     inkscape:document-units="mm"
     inkscape:current-layer="layer1"
     showgrid="false"
     fit-margin-top="0"
     fit-margin-left="0"
     fit-margin-right="0"
     fit-margin-bottom="0"
     inkscape:window-width="1920"
     inkscape:window-height="1018"
     inkscape:window-x="0"
     inkscape:window-y="34"
     inkscape:window-maximized="1" />
  <metadata
     id="metadata1540">
    <rdf:RDF>
      <cc:Work
         rdf:about="">
        <dc:format>image/svg+xml</dc:format>
        <dc:type
           rdf:resource="http://purl.org/dc/dcmitype/StillImage" />
        <dc:title></dc:title>
      </cc:Work>
    </rdf:RDF>
  </metadata>
  <g
     inkscape:label="Calque 1"
     inkscape:groupmode="layer"
     id="layer1"
     transform="translate(192.79008,38.511964)">
    <g
       transform="matrix(0.26458333,0,0,0.26458333,-192.79008,-45.468653)"
       id="g8">
      <path
         inkscape:connector-curvature="0"
         style="fill:#1a7492"
         d="M 0,183.842 140.084,113.8 280.168,183.833 140.084,253.875 Z"
         id="path2" />
      <path
         inkscape:connector-curvature="0"
         style="fill:#208eb2"
         d="M 0,140.079 140.084,70.046 280.168,140.088 140.084,210.112 Z"
         id="path4" />
      <path
         inkscape:connector-curvature="0"
         style="fill:#26a6d1"
         d="M 0,96.326 140.084,26.293 280.168,96.335 140.084,166.359 Z"
         id="path6" />
    </g>
    <g
       transform="matrix(0.26458333,0,0,0.26458333,-192.79008,-45.468653)"
       id="g10" />
    <g
       transform="matrix(0.26458333,0,0,0.26458333,-192.79008,-45.468653)"
       id="g12" />
    <g
       transform="matrix(0.26458333,0,0,0.26458333,-192.79008,-45.468653)"
       id="g14" />
    <g
       transform="matrix(0.26458333,0,0,0.26458333,-192.79008,-45.468653)"
       id="g16" />
    <g
       transform="matrix(0.26458333,0,0,0.26458333,-192.79008,-45.468653)"
       id="g18" />
    <g
       transform="matrix(0.26458333,0,0,0.26458333,-192.79008,-45.468653)"
       id="g20" />
    <g
       transform="matrix(0.26458333,0,0,0.26458333,-192.79008,-45.468653)"
       id="g22" />
    <g
       transform="matrix(0.26458333,0,0,0.26458333,-192.79008,-45.468653)"
       id="g24" />
    <g
       transform="matrix(0.26458333,0,0,0.26458333,-192.79008,-45.468653)"
       id="g26" />
    <g
       transform="matrix(0.26458333,0,0,0.26458333,-192.79008,-45.468653)"
       id="g28" />
    <g
       transform="matrix(0.26458333,0,0,0.26458333,-192.79008,-45.468653)"
       id="g30" />
    <g
       transform="matrix(0.26458333,0,0,0.26458333,-192.79008,-45.468653)"
       id="g32" />
    <g
       transform="matrix(0.26458333,0,0,0.26458333,-192.79008,-45.468653)"
       id="g34" />
    <g
       transform="matrix(0.26458333,0,0,0.26458333,-192.79008,-45.468653)"
       id="g36" />
    <g
       transform="matrix(0.26458333,0,0,0.26458333,-192.79008,-45.468653)"
       id="g38" />
  </g>
</svg>
