<svg width="200" height="200" version="1.0" xmlns="http://www.w3.org/2000/svg">
 <path d="m3.15 200c0.15-10.8 0.254-18.3-0.0641-32.3 7.02-8.79 31.7-12.8 38.5-15.2 8.71-6.5 18.6-12 27.1-16.9 4.7-2.71 4.76-12 4.42-18.2-1.56-8.82-2.39-16.4-8.69-22.9-0.352-1.85-1.38-6.09-4.47-11.6-2.08-9.32-10.3-20.9-8.22-26.8 5.49-15.8 0.693-22.2 4.06-23.5 7.69-3.07 9.77-9.79 16.8-16.5 20.6-3.92 17.4-14.4 32.8-12.3 19.1 2.5 8.56 5.32 21.6 12 16.1 8.16 6.49 8.98 21.1 30.6 8.7 12.8-8.25 13.7-3.86 25 4.06 10.5-5.51 12.3-10.3 23.7-4.63 11-7.53 14.2-2.2 28.7 4.95 13.5 13.2 7.32 31.7 27.5 4.71 5.12 21.6-1.08 33.3 13.9-0.0073 7.67 0.163 18.6 0.215 35-52.3-0.187-194-0.0583-194-0.0583z" fill="#fff"/>
</svg>
