<?xml version="1.0" encoding="UTF-8" standalone="no"?>
<!-- Created with Inkscape (http://www.inkscape.org/) -->

<svg
   xmlns:dc="http://purl.org/dc/elements/1.1/"
   xmlns:cc="http://creativecommons.org/ns#"
   xmlns:rdf="http://www.w3.org/1999/02/22-rdf-syntax-ns#"
   xmlns:svg="http://www.w3.org/2000/svg"
   xmlns="http://www.w3.org/2000/svg"
   xmlns:xlink="http://www.w3.org/1999/xlink"
   xmlns:sodipodi="http://sodipodi.sourceforge.net/DTD/sodipodi-0.dtd"
   xmlns:inkscape="http://www.inkscape.org/namespaces/inkscape"
   width="55.75164mm"
   height="14.343374mm"
   viewBox="0 0 197.54519 50.822979"
   id="svg8912"
   version="1.1"
   inkscape:version="0.92.3 (2405546, 2018-03-11)"
   sodipodi:docname="matchID-logo.svg"
   inkscape:export-filename="./matchID-logo.png"
   inkscape:export-xdpi="1000.3077"
   inkscape:export-ydpi="1000.3077">
  <defs
     id="defs8914">
    <linearGradient
       inkscape:collect="always"
       id="linearGradient4183">
      <stop
         id="stop4187"
         offset="0"
         style="stop-color:#ffffff;stop-opacity:0;" />
      <stop
         style="stop-color:#ffffff;stop-opacity:0.59625667"
         offset="0.3547895"
         id="stop4229" />
      <stop
         id="stop4185"
         offset="1"
         style="stop-color:#ffffff;stop-opacity:1;" />
    </linearGradient>
    <linearGradient
       id="linearGradient6928">
      <stop
         style="stop-color:#174791;stop-opacity:1;"
         offset="0"
         id="stop6930" />
      <stop
         style="stop-color:#c2001f;stop-opacity:0.31123918"
         offset="1"
         id="stop6934" />
    </linearGradient>
    <linearGradient
       inkscape:collect="always"
       id="linearGradient6450">
      <stop
         style="stop-color:#003189;stop-opacity:1;"
         offset="0"
         id="stop6452" />
      <stop
         style="stop-color:#003189;stop-opacity:0;"
         offset="1"
         id="stop6454" />
    </linearGradient>
    <linearGradient
       inkscape:collect="always"
       xlink:href="#linearGradient6450"
       id="linearGradient6456-3"
       x1="-419.73984"
       y1="-400.78754"
       x2="-460.14178"
       y2="-401.41888"
       gradientUnits="userSpaceOnUse"
       gradientTransform="matrix(1.0946986,0,0,1.0946986,251.47879,45.066851)" />
    <linearGradient
       inkscape:collect="always"
       xlink:href="#linearGradient4183"
       id="linearGradient4189"
       x1="-398.63919"
       y1="-393.46113"
       x2="-201.88051"
       y2="-393.46113"
       gradientUnits="userSpaceOnUse" />
  </defs>
  <sodipodi:namedview
     id="base"
     pagecolor="#ffffff"
     bordercolor="#666666"
     borderopacity="1.0"
     inkscape:pageopacity="0.0"
     inkscape:pageshadow="2"
     inkscape:zoom="2.8"
     inkscape:cx="115.22882"
     inkscape:cy="-88.316051"
     inkscape:document-units="px"
     inkscape:current-layer="layer1"
     showgrid="false"
     inkscape:window-width="1518"
     inkscape:window-height="1015"
     inkscape:window-x="277"
     inkscape:window-y="34"
     inkscape:window-maximized="0"
     fit-margin-top="0"
     fit-margin-left="0"
     fit-margin-right="0"
     fit-margin-bottom="0"
     showborder="true" />
  <metadata
     id="metadata8917">
    <rdf:RDF>
      <cc:Work
         rdf:about="">
        <dc:format>image/svg+xml</dc:format>
        <dc:type
           rdf:resource="http://purl.org/dc/dcmitype/StillImage" />
        <dc:title />
      </cc:Work>
    </rdf:RDF>
  </metadata>
  <g
     inkscape:label="Calque 1"
     inkscape:groupmode="layer"
     id="layer1"
     transform="translate(398.63919,418.86182)">
    <text
       xml:space="preserve"
       style="font-style:normal;font-weight:normal;line-height:0%;font-family:sans-serif;letter-spacing:0px;word-spacing:0px;fill:#e2011c;fill-opacity:1;stroke:none;stroke-width:1px;stroke-linecap:butt;stroke-linejoin:miter;stroke-opacity:1"
       x="-600.99713"
       y="-328.62854"
       id="text6351-3-9"><tspan
         sodipodi:role="line"
         id="tspan6353-1-4"
         x="-600.99713"
         y="-328.62854"
         style="font-style:normal;font-variant:normal;font-weight:normal;font-stretch:normal;font-size:44.39190292px;line-height:125%;font-family:Raleway;-inkscape-font-specification:'Raleway, Normal';text-align:start;writing-mode:lr-tb;text-anchor:start;fill:#e2011c;fill-opacity:1"> <tspan
   style="fill:#003189;fill-opacity:1"
   id="tspan6360-4-2" /></tspan></text>
    <path
       style="color:#000000;clip-rule:nonzero;display:inline;overflow:visible;visibility:visible;opacity:1;isolation:auto;mix-blend-mode:normal;color-interpolation:sRGB;color-interpolation-filters:linearRGB;solid-color:#000000;solid-opacity:1;fill:url(#linearGradient4189);fill-opacity:1;fill-rule:evenodd;stroke:none;stroke-width:3;stroke-linecap:butt;stroke-linejoin:miter;stroke-miterlimit:4;stroke-dasharray:none;stroke-dashoffset:0;stroke-opacity:1;color-rendering:auto;image-rendering:auto;shape-rendering:auto;text-rendering:auto;enable-background:accumulate"
       d="m -218.86201,-418.74318 h -179.77718 v 50.5641 h 188.15696 l -0.68399,-3.07225 -2.27687,-2.44 -0.56923,-1.8499 -0.25819,-3.59367 1.97793,-2.70695 3.57689,-0.0358 2.84611,-0.6666 1.18978,-2.25891 -0.7791,-2.10593 0.80022,-1.76248 -0.30951,-0.73528 0.80929,-1.21921 -0.18875,-2.26829 2.03833,-0.68689 0.42881,-1.41904 -1.79524,-2.38224 -2.31765,-3.99485 1.39965,-1.38159 -1.97643,-4.72857 -1.99604,-3.33607 1.85564,-1.28947 -1.76957,-1.69827 -3.35493,-0.94859 -0.382,-2.02865 -0.66866,-0.1474 -1.46284,-0.15777 -2.77147,0.33017 -1.46567,-0.69937 -0.27629,-1.28012 z"
       id="path4241"
       inkscape:connector-curvature="0"
       sodipodi:nodetypes="cccccccccccccccccccccccccccccccccc" />
    <g
       style="font-style:normal;font-weight:normal;font-size:95.20922089px;line-height:125%;font-family:sans-serif;letter-spacing:0px;word-spacing:0px;fill:#e2011c;fill-opacity:1;stroke:#ffffff;stroke-width:6.4342289;stroke-linecap:butt;stroke-linejoin:miter;stroke-miterlimit:4;stroke-dasharray:none;stroke-opacity:1"
       id="text6351-3-1"
       transform="matrix(0.48340278,0,0,0.48340278,-89.910967,-191.38839)">
      <path
         inkscape:connector-curvature="0"
         d="M -340.65545,-386.61166 V -454.115 h 13.13888 v 67.50334 z"
         style="font-style:normal;font-variant:normal;font-weight:bold;font-stretch:normal;font-size:95.20922089px;line-height:125%;font-family:Raleway;-inkscape-font-specification:'Raleway, Bold';text-align:start;writing-mode:lr-tb;text-anchor:start;fill:#e2011c;fill-opacity:1;stroke:#ffffff;stroke-width:6.4342289;stroke-miterlimit:4;stroke-dasharray:none;stroke-opacity:1"
         id="path7177" />
      <path
         inkscape:connector-curvature="0"
         d="m -313.50594,-386.61166 v -67.59855 h 24.56398 q 8.2832,0 14.4718,2.66586 6.28381,2.66586 10.47301,7.2359 4.18921,4.57004 6.28381,10.75864 2.0946,6.09339 2.0946,13.04366 0,7.71195 -2.38023,13.99576 -2.28502,6.1886 -6.66464,10.66343 -4.37963,4.37963 -10.56822,6.85507 -6.0934,2.38023 -13.71013,2.38023 z m 44.65312,-33.89449 q 0,-4.85567 -1.33293,-8.94966 -1.33293,-4.094 -3.90357,-7.04549 -2.57065,-2.95148 -6.37902,-4.57004 -3.71316,-1.61855 -8.47362,-1.61855 h -11.42511 v 44.55791 h 11.42511 q 4.85567,0 8.56883,-1.71377 3.80837,-1.71376 6.28381,-4.66525 2.57064,-3.04669 3.90357,-7.14069 1.33293,-4.094 1.33293,-8.85446 z"
         style="font-style:normal;font-variant:normal;font-weight:bold;font-stretch:normal;font-size:95.20922089px;line-height:125%;font-family:Raleway;-inkscape-font-specification:'Raleway, Bold';text-align:start;writing-mode:lr-tb;text-anchor:start;fill:#e2011c;fill-opacity:1;stroke:#ffffff;stroke-width:6.4342289;stroke-miterlimit:4;stroke-dasharray:none;stroke-opacity:1"
         id="path7179" />
    </g>
    <g
       style="font-style:normal;font-weight:normal;font-size:95.20922089px;line-height:125%;font-family:sans-serif;letter-spacing:0px;word-spacing:0px;fill:#e2011c;fill-opacity:1;stroke:none;stroke-width:1px;stroke-linecap:butt;stroke-linejoin:miter;stroke-opacity:1"
       id="text6351-3"
       transform="matrix(0.48340278,0,0,0.48340278,-90.411986,-191.51466)">
      <path
         inkscape:connector-curvature="0"
         d="m -339.31978,-386.13562 v -67.50334 h 13.13887 v 67.50334 z"
         style="font-style:normal;font-variant:normal;font-weight:bold;font-stretch:normal;font-size:95.20922089px;line-height:125%;font-family:Raleway;-inkscape-font-specification:'Raleway, Bold';text-align:start;writing-mode:lr-tb;text-anchor:start;fill:#e2011c;fill-opacity:1;stroke:none;stroke-opacity:0.82795697"
         id="path7192" />
      <path
         inkscape:connector-curvature="0"
         d="m -312.17028,-386.13562 v -67.59855 h 24.56398 q 8.2832,0 14.4718,2.66586 6.28381,2.66586 10.47302,7.2359 4.1892,4.57004 6.28381,10.75864 2.0946,6.09339 2.0946,13.04367 0,7.71194 -2.38023,13.99575 -2.28502,6.1886 -6.66465,10.66344 -4.37962,4.37962 -10.56822,6.85506 -6.09339,2.38023 -13.71013,2.38023 z m 44.65313,-33.89448 q 0,-4.85567 -1.33293,-8.94967 -1.33293,-4.094 -3.90358,-7.04548 -2.57065,-2.95149 -6.37902,-4.57004 -3.71316,-1.61856 -8.47362,-1.61856 h -11.4251 v 44.55791 h 11.4251 q 4.85567,0 8.56883,-1.71376 3.80837,-1.71377 6.28381,-4.66525 2.57065,-3.0467 3.90358,-7.1407 1.33293,-4.09399 1.33293,-8.85445 z"
         style="font-style:normal;font-variant:normal;font-weight:bold;font-stretch:normal;font-size:95.20922089px;line-height:125%;font-family:Raleway;-inkscape-font-specification:'Raleway, Bold';text-align:start;writing-mode:lr-tb;text-anchor:start;fill:#e2011c;fill-opacity:1;stroke:none;stroke-opacity:0.82795697"
         id="path7194" />
    </g>
    <path
       inkscape:connector-curvature="0"
       style="fill:none;fill-opacity:1;fill-rule:evenodd;stroke:url(#linearGradient6456-3);stroke-width:1.41529596;stroke-linecap:butt;stroke-linejoin:miter;stroke-miterlimit:4;stroke-dasharray:none;stroke-opacity:1"
       d="m -221.30365,-417.93462 1.20707,0.0235 1.03927,-0.17401 0.95549,1.55678 0.91305,-0.25867 3.87512,0.14826 -1.22817,-1.11628 2.32432,1.87846 0.38238,1.49448 3.35571,0.71734 1.76878,2.30953 -1.85597,1.24733 1.99673,3.22691 1.97555,4.57311 -1.39884,1.33583 2.31685,3.86382 1.7962,2.30492 -0.42975,1.37264 -2.03784,0.66331 0.18935,2.19457 -0.80967,1.17949 0.30891,0.71046 -0.79967,1.70485 0.77851,2.03709 -1.18957,2.18425 -2.84623,0.6449 -3.57618,0.0356 -1.97803,2.61763 0.25784,3.47523 0.56925,1.78879 2.27699,2.36012 0.71122,3.08783 h -45.73133"
       id="path3581-3-4-8"
       sodipodi:nodetypes="ccccccccccccccccccccccccccccccccc" />
    <path
       style="fill:#003189;fill-opacity:1"
       d="m -311.23795,-404.75113 c -0.23566,0.0156 -0.45505,0.33625 -0.62172,1.02846 -0.0879,0.3648 -0.2996,0.80892 -0.46966,0.98619 -0.6913,0.72061 0.19847,10.74151 1.25019,14.08504 0.18845,0.59911 0.37937,1.3046 0.42574,1.57086 0.49911,2.86673 0.64412,3.78703 0.73996,4.71968 0.0616,0.59908 0.21847,1.22833 0.34804,1.39477 0.68714,0.882 1.81126,-0.0576 2.75041,-2.29995 0.18123,-0.4327 0.40691,-0.78896 0.50344,-0.78896 0.0965,0 0.17571,-0.20429 0.17571,-0.45434 0,-0.88109 1.10382,-3.51729 1.56104,-3.72996 0.24979,-0.11608 0.54853,-0.49464 0.66565,-0.8418 0.18173,-0.53873 0.36502,-0.63957 1.2468,-0.68682 0.61328,-0.0329 1.14144,-0.20722 1.29749,-0.42969 0.19182,-0.27339 0.49062,-0.33408 1.11165,-0.22893 0.98793,0.16712 1.0131,0.0797 0.47643,-1.63076 -0.41025,-1.30743 -0.55275,-1.40328 -1.15558,-0.77487 -0.26628,0.27752 -0.77206,0.42085 -1.48672,0.42265 -1.59813,0.005 -3.65413,1.3132 -4.42295,2.81067 -0.13062,0.25431 -0.38975,0.46139 -0.57441,0.46139 -0.35577,0 -0.39082,-0.12369 -0.82444,-2.78249 -0.15207,-0.93193 -0.4684,-2.29327 -0.70281,-3.02551 -0.23476,-0.73336 -0.478,-2.36589 -0.54062,-3.63486 -0.17449,-3.53741 -1.04665,-6.21937 -1.75364,-6.17077 z m 30.11934,1.37009 c -1.16342,0 -1.69859,1.13635 -2.50037,5.32549 -0.80905,4.22716 -0.7071,7.40912 0.35141,11.03133 0.65837,2.25293 -0.47538,3.58104 -3.906,4.58233 -0.60591,0.17689 -1.44007,0.4327 -1.85499,0.56705 -0.54471,0.17636 -0.83863,0.16383 -1.05422,-0.0422 -0.16418,-0.15708 -0.86977,-0.60468 -1.5678,-0.99678 -1.90775,-1.07166 -3.07018,-2.27615 -2.89569,-3.00086 0.28455,-1.18177 0.86824,-1.74993 1.65226,-1.60963 0.48552,0.0868 0.82029,0.007 1.01704,-0.2395 0.3187,-0.40028 1.06152,-0.49382 1.26033,-0.15847 0.31389,0.52941 1.81398,0.50327 2.23682,-0.0388 0.67245,-0.86198 0.80221,-2.46661 0.26355,-3.25798 -0.24851,-0.36506 -0.49627,-0.88195 -0.55076,-1.14821 -0.0576,-0.28181 -0.23772,-0.44307 -0.4325,-0.38392 -0.18398,0.0557 -0.74801,0.15086 -1.25356,0.21134 -0.50556,0.0605 -1.49864,0.44011 -2.20641,0.84179 -0.70777,0.40171 -1.74674,0.98618 -2.30777,1.29967 -2.2486,1.25639 -3.74042,3.11512 -3.74042,4.65979 0,2.36761 2.02867,5.59317 3.51741,5.59317 0.349,0 0.69825,0.11003 0.77714,0.24301 0.19466,0.32825 4.25458,0.30813 5.62922,-0.0282 1.08201,-0.26468 1.31947,-0.35665 2.26722,-0.87701 0.25543,-0.1403 0.90459,-0.44483 1.44279,-0.67625 0.55914,-0.24042 1.20707,-0.76608 1.51037,-1.22923 0.29195,-0.44582 0.65219,-0.86274 0.80079,-0.92281 0.33892,-0.13684 1.50272,1.78452 1.9361,1.93013 0,0 0.36707,0.42009 0.78389,-0.24301 0.23891,-0.3801 0.68833,-0.65113 1.24682,-0.75374 1.2623,-0.23173 3.08049,-1.50457 3.44307,-2.40915 0.16764,-0.41836 0.4667,-0.89869 0.66565,-1.07074 0.19904,-0.1723 0.36318,-0.43815 0.36491,-0.58819 0.0384,-2.38088 2.17137,-3.01473 2.89233,-0.85939 0.86989,2.60059 2.78725,5.06483 3.94314,5.06483 0.14722,0 0.70497,0.33648 1.24006,0.74668 0.77913,0.5966 1.11281,0.71289 1.67255,0.58468 0.50825,-0.11625 0.91895,-0.0156 1.50697,0.36278 0.46307,0.29824 0.99312,0.45857 1.24006,0.37688 0.50496,-0.16694 1.62663,-1.34546 1.28059,-1.34546 -0.12941,0 -0.35832,-0.2831 -0.51021,-0.63048 -0.2113,-0.48332 -0.39463,-0.59821 -0.78052,-0.49308 -0.70696,0.1927 -2.30666,-0.60385 -3.15588,-1.57088 -1.71275,-1.95042 -2.13207,-2.5186 -2.13207,-2.87759 0,-0.20997 -0.0943,-0.48642 -0.20611,-0.61285 -0.11176,-0.12646 -0.59174,-1.20741 -1.06773,-2.40563 -0.47601,-1.19819 -1.01088,-2.52497 -1.18937,-2.94449 -0.1785,-0.41953 -0.32437,-0.86937 -0.32437,-1.0003 0,-0.45699 -1.04638,-0.98469 -1.46644,-0.73964 -0.21713,0.12664 -0.5008,0.16314 -0.62847,0.081 -0.12767,-0.0822 -0.30093,0.0474 -0.38518,0.2888 -0.0842,0.24144 -0.44899,0.83569 -0.81093,1.32083 -0.36193,0.4851 -0.65551,1.00439 -0.65551,1.15172 0,0.14739 -0.0846,0.2677 -0.18584,0.2677 -0.1012,0 -0.30287,0.46265 -0.4494,1.02846 -0.26247,1.01341 -1.73848,3.06761 -2.82136,3.92717 -0.62148,0.49333 -1.51635,0.15241 -2.0003,-0.76431 -0.12767,-0.2419 -0.30249,-0.49346 -0.38518,-0.56001 -1.00087,-0.80574 -1.3665,-6.74889 -0.75687,-12.29933 0.15518,-1.41277 -0.20812,-2.70852 -0.76026,-2.70853 z m -94.53434,2.51835 c -0.96611,-0.21208 -3.02269,1.38335 -4.02085,3.52564 -1.08488,2.32837 -3.5886,7.05639 -4.35878,8.23126 -0.34909,0.53254 -1.04456,1.56772 -1.54413,2.29995 -0.49957,0.73224 -0.91214,1.44982 -0.91906,1.59553 -0.007,0.14567 -0.23157,0.47227 -0.50008,0.72558 -1.64718,1.55392 -1.52417,4.02608 0.15552,3.11005 0.86619,-0.47241 3.58161,-3.74631 3.58161,-4.31815 0,-0.16764 0.26187,-0.56081 0.58117,-0.87349 0.31929,-0.3127 0.58116,-0.73234 0.58116,-0.93338 0,-0.39513 0.68801,-1.89404 1.40561,-3.06073 0.24566,-0.3994 0.51981,-0.88864 0.60822,-1.08835 0.0884,-0.19969 0.54229,-0.90873 1.01027,-1.57439 0.46798,-0.66569 1.02552,-1.5644 1.24006,-1.99707 0.45934,-0.92637 1.16982,-1.0338 1.56103,-0.2395 0.14757,0.29955 0.5605,0.87211 0.91906,1.27151 0.4789,0.53342 0.67779,1.0291 0.74336,1.87377 0.0599,0.77129 0.2491,1.30802 0.57778,1.62722 0.26948,0.26171 0.55956,0.72442 0.64537,1.02848 0.0858,0.30404 0.72194,1.72239 1.41238,3.1523 0.69046,1.42992 1.25357,2.76919 1.25357,2.97621 0,0.20701 0.26186,0.64986 0.58115,0.98269 0.3193,0.33283 0.58117,0.80214 0.58117,1.04607 0,0.51246 0.36633,0.86397 1.09476,1.0496 1.086,0.27676 4.54301,-4.24188 4.86221,-6.35395 0.24853,-1.64435 1.47295,-3.09384 1.47319,-1.74346 7e-5,0.35826 0.2109,1.22623 0.46628,1.92661 0.25537,0.70039 0.46786,1.78878 0.47305,2.41972 0.0121,1.47999 0.85773,2.58524 2.13884,2.79306 0.48316,0.0784 0.87175,0.0379 0.87175,-0.088 0,-0.12473 0.14031,-0.22542 0.31424,-0.22542 0.56155,0 3.29075,-2.98878 3.86882,-4.23714 0.51751,-1.11757 1.44822,-2.57406 2.04083,-3.19459 0.29439,-0.30827 0.69603,-0.96724 0.89541,-1.46521 0.39658,-0.99042 1.51751,-2.23655 2.01043,-2.23655 0.38576,0 0.71295,0.68096 1.186,2.47959 0.89049,3.38587 1.16869,4.23044 1.6793,5.07893 0.29885,0.4966 0.54729,0.98591 0.55075,1.08834 0.0353,0.99668 2.25034,2.57007 4.86897,3.45875 1.84143,0.6249 3.72912,1.56375 4.33848,2.15553 1.53922,1.49481 5.47926,0.36625 9.22097,-2.64159 1.10065,-0.8848 1.39059,-0.90286 2.04084,-0.12335 0.27763,0.33282 0.62915,0.60581 0.78052,0.60581 0.15138,0 0.56628,0.23553 0.91906,0.52479 1.32693,1.08802 3.04106,1.72948 5.92318,2.21544 1.09077,0.1839 1.30228,0.16296 1.73336,-0.16556 0.27524,-0.20978 0.79543,-0.28616 1.43266,-0.21132 1.22208,0.14359 4.09527,-1.00495 3.98369,-1.592 -0.10951,-0.5765 -0.94354,-0.74656 -1.92596,-0.39449 -0.59775,0.21424 -0.99981,0.24683 -1.17923,0.0917 -0.16504,-0.14273 -0.49106,-0.15293 -0.82444,-0.0247 -0.92117,0.35437 -3.15057,-0.0304 -3.69313,-0.6375 -0.29532,-0.33043 -0.75675,-0.53528 -1.21978,-0.53888 -1.22893,-0.0104 -3.41603,-2.3556 -3.41603,-3.66304 0,-0.36193 -0.0943,-0.72189 -0.2095,-0.796 -0.11522,-0.074 -0.2818,-0.81603 -0.3683,-1.64836 -0.3338,-3.21031 -0.93388,-3.79499 -2.19289,-2.13794 -1.05267,1.38543 -1.44252,2.50883 -1.26708,3.65245 0.0818,0.53291 0.0547,0.9703 -0.0574,0.97212 -0.1121,0.002 -0.56665,0.33539 -1.01367,0.74317 -0.44701,0.40779 -1.07619,0.98095 -1.39547,1.27148 -1.09406,0.99546 -3.67986,1.29428 -4.82504,0.55652 -0.36757,-0.23681 -0.17928,-2.43321 0.25341,-2.9586 0.21085,-0.25604 1.14246,-1.31144 2.07126,-2.34574 l 1.68944,-1.88083 0.96298,0.15155 c 1.97113,0.30574 2.68694,-1.52476 0.85148,-2.17669 -1.78255,-0.63312 -3.44536,0.002 -4.91291,1.87025 -0.33319,0.42428 -1.33096,1.50881 -2.21654,2.41268 -1.44935,1.47917 -1.607,1.7335 -1.57794,2.53946 0.10882,3.01894 -1.73866,3.82876 -3.77421,1.65543 -0.67113,-0.71656 -1.44905,-1.37941 -1.72999,-1.47227 -0.31496,-0.10432 -0.56015,-0.43317 -0.64198,-0.85939 -0.073,-0.38018 -0.2632,-0.74293 -0.42236,-0.80659 -0.15916,-0.0637 -0.35743,-0.55204 -0.43926,-1.0848 -0.0817,-0.53279 -0.23434,-1.00506 -0.34126,-1.04961 -0.29197,-0.12144 -1.37895,-3.31353 -1.55091,-4.55766 -0.79308,-5.7409 -3.18365,-5.70367 -6.37594,0.10207 -0.37119,0.67509 -0.89191,1.47061 -1.15558,1.7646 -0.26367,0.29398 -0.47981,0.59835 -0.47981,0.67625 0,0.0779 -0.41831,0.81121 -0.92918,1.63076 -0.51088,0.81956 -0.92582,1.55166 -0.92582,1.62722 0,0.1493 -2.21352,1.7012 -2.42603,1.7012 -0.0716,0 -0.12836,-0.20587 -0.12836,-0.45789 0,-0.25202 -0.13719,-0.5109 -0.3041,-0.57763 -0.30269,-0.12092 -0.92565,-3.36818 -1.22992,-6.40676 -0.0946,-0.94454 -0.31643,-1.70596 -0.58793,-2.03229 -0.23902,-0.28726 -0.4325,-0.61636 -0.4325,-0.72906 0,-0.1128 -0.13771,-0.2043 -0.3041,-0.2043 -0.31537,0 -1.55427,2.18202 -1.55427,2.7367 0,0.17475 -0.26829,0.69319 -0.59468,1.15176 -0.99694,1.40053 -2.36263,4.17005 -2.52404,5.12118 -0.0839,0.49496 -0.28425,1.04083 -0.446,1.21161 -0.16176,0.17075 -0.36751,0.51491 -0.45954,0.76784 l -0.16885,0.46139 -0.53724,-0.52831 c -0.29652,-0.29038 -0.68591,-0.82342 -0.865,-1.18345 -0.17909,-0.36001 -0.72917,-1.41893 -1.21978,-2.35278 -0.4906,-0.93387 -1.13568,-2.44489 -1.43603,-3.36012 -0.30032,-0.91527 -0.75332,-1.89728 -1.00351,-2.18022 -0.25017,-0.28294 -0.68118,-1.06018 -0.95961,-1.72585 -0.2784,-0.66566 -0.60241,-1.39603 -0.7197,-1.62723 -0.1173,-0.23116 -0.21286,-0.57814 -0.21286,-0.76782 0,-0.18967 -0.31291,-0.61843 -0.69606,-0.9545 -0.38314,-0.33607 -0.69605,-0.67955 -0.69605,-0.76431 0,-0.51901 -0.2017,-0.79223 -0.52373,-0.86291 z"
       id="path4186"
       inkscape:connector-curvature="0"
       sodipodi:nodetypes="ccsscccssscccccccccscccccsscscccccssccccscsscccsscscccccssccccsccsscccscscssscsccsccssssccscssssccccccsscsssccccsssscssccsssssssccccccscsscscscccscccssccsccscccscssssssccsssccscccsscsccscscc" />
  </g>
</svg>
