<svg width="55.8mm" height="14.3mm" version="1.1" viewBox="0 0 198 50.8" xmlns="http://www.w3.org/2000/svg" xmlns:xlink="http://www.w3.org/1999/xlink">
 <defs>
  <linearGradient id="a" x1="-420" x2="-460" y1="-401" y2="-401" gradientTransform="matrix(1.09 0 0 1.09 251 45.1)" gradientUnits="userSpaceOnUse">
   <stop stop-color="#003189" offset="0"/>
   <stop stop-color="#003189" stop-opacity="0" offset="1"/>
  </linearGradient>
  <linearGradient id="b" x1="-399" x2="-202" y1="-393" y2="-393" gradientUnits="userSpaceOnUse">
   <stop stop-color="#fff" stop-opacity="0" offset="0"/>
   <stop stop-color="#fff" stop-opacity=".596" offset=".355"/>
   <stop stop-color="#fff" offset="1"/>
  </linearGradient>
 </defs>
 <g transform="translate(399 419)">
  <g>
   <text x="-600.99713" y="-328.62854" fill="#e2011c" font-family="sans-serif" letter-spacing="0px" stroke-width="1px" word-spacing="0px" style="line-height:0%" xml:space="preserve"><tspan x="-600.99713" y="-328.62854" fill="#e2011c" font-family="Raleway" font-size="44.4px" style="line-height:125%"> <tspan fill="#003189"/></tspan></text>
   <path d="m-219-419h-180v50.6h188l-0.684-3.07-2.28-2.44-0.569-1.85-0.258-3.59 1.98-2.71 3.58-0.0358 2.85-0.667 1.19-2.26-0.779-2.11 0.8-1.76-0.31-0.735 0.809-1.22-0.189-2.27 2.04-0.687 0.429-1.42-1.8-2.38-2.32-3.99 1.4-1.38-1.98-4.73-2-3.34 1.86-1.29-1.77-1.7-3.35-0.949-0.382-2.03-0.669-0.147-1.46-0.158-2.77 0.33-1.47-0.699-0.276-1.28z" color="#000000" color-rendering="auto" fill="url(#b)" fill-rule="evenodd" image-rendering="auto" shape-rendering="auto" solid-color="#000000" style="isolation:auto;mix-blend-mode:normal"/>
   <g transform="matrix(.483 0 0 .483 -89.9 -191)" fill="#e2011c" stroke="#fff" stroke-width="6.43">
    <path d="m-341-387v-67.5h13.1v67.5z"/>
    <path d="m-314-387v-67.6h24.6q8.28 0 14.5 2.67 6.28 2.67 10.5 7.24 4.19 4.57 6.28 10.8 2.09 6.09 2.09 13 0 7.71-2.38 14-2.29 6.19-6.66 10.7-4.38 4.38-10.6 6.86-6.09 2.38-13.7 2.38zm44.7-33.9q0-4.86-1.33-8.95-1.33-4.09-3.9-7.05-2.57-2.95-6.38-4.57-3.71-1.62-8.47-1.62h-11.4v44.6h11.4q4.86 0 8.57-1.71 3.81-1.71 6.28-4.67 2.57-3.05 3.9-7.14t1.33-8.85z"/>
   </g>
   <g transform="matrix(.483 0 0 .483 -90.4 -192)" fill="#e2011c" stroke-width="1px">
    <path d="m-339-386v-67.5h13.1v67.5z"/>
    <path d="m-312-386v-67.6h24.6q8.28 0 14.5 2.67 6.28 2.67 10.5 7.24 4.19 4.57 6.28 10.8 2.09 6.09 2.09 13 0 7.71-2.38 14-2.29 6.19-6.66 10.7-4.38 4.38-10.6 6.86-6.09 2.38-13.7 2.38zm44.7-33.9q0-4.86-1.33-8.95t-3.9-7.05q-2.57-2.95-6.38-4.57-3.71-1.62-8.47-1.62h-11.4v44.6h11.4q4.86 0 8.57-1.71 3.81-1.71 6.28-4.67 2.57-3.05 3.9-7.14 1.33-4.09 1.33-8.85z"/>
   </g>
  </g>
  <path d="m-221-418 1.21 0.0235 1.04-0.174 0.955 1.56 0.913-0.259 3.88 0.148-1.23-1.12 2.32 1.88 0.382 1.49 3.36 0.717 1.77 2.31-1.86 1.25 2 3.23 1.98 4.57-1.4 1.34 2.32 3.86 1.8 2.3-0.43 1.37-2.04 0.663 0.189 2.19-0.81 1.18 0.309 0.71-0.8 1.7 0.779 2.04-1.19 2.18-2.85 0.645-3.58 0.0356-1.98 2.62 0.258 3.48 0.569 1.79 2.28 2.36 0.711 3.09h-45.7" fill="none" stroke="url(#a)" stroke-width="1.42"/>
  <path d="m-311-405c-0.236 0.0156-0.455 0.336-0.622 1.03-0.0879 0.365-0.3 0.809-0.47 0.986-0.691 0.721 0.198 10.7 1.25 14.1 0.188 0.599 0.379 1.3 0.426 1.57 0.499 2.87 0.644 3.79 0.74 4.72 0.0616 0.599 0.218 1.23 0.348 1.39 0.687 0.882 1.81-0.0576 2.75-2.3 0.181-0.433 0.407-0.789 0.503-0.789 0.0965 0 0.176-0.204 0.176-0.454 0-0.881 1.1-3.52 1.56-3.73 0.25-0.116 0.549-0.495 0.666-0.842 0.182-0.539 0.365-0.64 1.25-0.687 0.613-0.0329 1.14-0.207 1.3-0.43 0.192-0.273 0.491-0.334 1.11-0.229 0.988 0.167 1.01 0.0797 0.476-1.63-0.41-1.31-0.553-1.4-1.16-0.775-0.266 0.278-0.772 0.421-1.49 0.423-1.6 5e-3 -3.65 1.31-4.42 2.81-0.131 0.254-0.39 0.461-0.574 0.461-0.356 0-0.391-0.124-0.824-2.78-0.152-0.932-0.468-2.29-0.703-3.03-0.235-0.733-0.478-2.37-0.541-3.63-0.174-3.54-1.05-6.22-1.75-6.17zm30.1 1.37c-1.16 0-1.7 1.14-2.5 5.33-0.809 4.23-0.707 7.41 0.351 11 0.658 2.25-0.475 3.58-3.91 4.58-0.606 0.177-1.44 0.433-1.85 0.567-0.545 0.176-0.839 0.164-1.05-0.0422-0.164-0.157-0.87-0.605-1.57-0.997-1.91-1.07-3.07-2.28-2.9-3 0.285-1.18 0.868-1.75 1.65-1.61 0.486 0.0868 0.82 7e-3 1.02-0.24 0.319-0.4 1.06-0.494 1.26-0.158 0.314 0.529 1.81 0.503 2.24-0.0388 0.672-0.862 0.802-2.47 0.264-3.26-0.249-0.365-0.496-0.882-0.551-1.15-0.0576-0.282-0.238-0.443-0.432-0.384-0.184 0.0557-0.748 0.151-1.25 0.211-0.506 0.0605-1.5 0.44-2.21 0.842-0.708 0.402-1.75 0.986-2.31 1.3-2.25 1.26-3.74 3.12-3.74 4.66 0 2.37 2.03 5.59 3.52 5.59 0.349 0 0.698 0.11 0.777 0.243 0.195 0.328 4.25 0.308 5.63-0.0282 1.08-0.265 1.32-0.357 2.27-0.877 0.255-0.14 0.905-0.445 1.44-0.676 0.559-0.24 1.21-0.766 1.51-1.23 0.292-0.446 0.652-0.863 0.801-0.923 0.339-0.137 1.5 1.78 1.94 1.93 0 0 0.367 0.42 0.784-0.243 0.239-0.38 0.688-0.651 1.25-0.754 1.26-0.232 3.08-1.5 3.44-2.41 0.168-0.418 0.467-0.899 0.666-1.07 0.199-0.172 0.363-0.438 0.365-0.588 0.0384-2.38 2.17-3.01 2.89-0.859 0.87 2.6 2.79 5.06 3.94 5.06 0.147 0 0.705 0.336 1.24 0.747 0.779 0.597 1.11 0.713 1.67 0.585 0.508-0.116 0.919-0.0156 1.51 0.363 0.463 0.298 0.993 0.459 1.24 0.377 0.505-0.167 1.63-1.35 1.28-1.35-0.129 0-0.358-0.283-0.51-0.63-0.211-0.483-0.395-0.598-0.781-0.493-0.707 0.193-2.31-0.604-3.16-1.57-1.71-1.95-2.13-2.52-2.13-2.88 0-0.21-0.0943-0.486-0.206-0.613-0.112-0.126-0.592-1.21-1.07-2.41-0.476-1.2-1.01-2.52-1.19-2.94-0.178-0.42-0.324-0.869-0.324-1 0-0.457-1.05-0.985-1.47-0.74-0.217 0.127-0.501 0.163-0.628 0.081-0.128-0.0822-0.301 0.0474-0.385 0.289-0.0842 0.241-0.449 0.836-0.811 1.32-0.362 0.485-0.656 1-0.656 1.15 0 0.147-0.0846 0.268-0.186 0.268-0.101 0-0.303 0.463-0.449 1.03-0.262 1.01-1.74 3.07-2.82 3.93-0.621 0.493-1.52 0.152-2-0.764-0.128-0.242-0.302-0.493-0.385-0.56-1-0.806-1.37-6.75-0.757-12.3 0.155-1.41-0.208-2.71-0.76-2.71zm-94.5 2.52c-0.966-0.212-3.02 1.38-4.02 3.53-1.08 2.33-3.59 7.06-4.36 8.23-0.349 0.533-1.04 1.57-1.54 2.3-0.5 0.732-0.912 1.45-0.919 1.6-7e-3 0.146-0.232 0.472-0.5 0.726-1.65 1.55-1.52 4.03 0.156 3.11 0.866-0.472 3.58-3.75 3.58-4.32 0-0.168 0.262-0.561 0.581-0.873 0.319-0.313 0.581-0.732 0.581-0.933 0-0.395 0.688-1.89 1.41-3.06 0.246-0.399 0.52-0.889 0.608-1.09 0.0884-0.2 0.542-0.909 1.01-1.57 0.468-0.666 1.03-1.56 1.24-2 0.459-0.926 1.17-1.03 1.56-0.24 0.148 0.3 0.56 0.872 0.919 1.27 0.479 0.533 0.678 1.03 0.743 1.87 0.0599 0.771 0.249 1.31 0.578 1.63 0.269 0.262 0.56 0.724 0.645 1.03 0.0858 0.304 0.722 1.72 1.41 3.15 0.69 1.43 1.25 2.77 1.25 2.98 0 0.207 0.262 0.65 0.581 0.983 0.319 0.333 0.581 0.802 0.581 1.05 0 0.512 0.366 0.864 1.09 1.05 1.09 0.277 4.54-4.24 4.86-6.35 0.249-1.64 1.47-3.09 1.47-1.74 7e-5 0.358 0.211 1.23 0.466 1.93 0.255 0.7 0.468 1.79 0.473 2.42 0.0121 1.48 0.858 2.59 2.14 2.79 0.483 0.0784 0.872 0.0379 0.872-0.088 0-0.125 0.14-0.225 0.314-0.225 0.562 0 3.29-2.99 3.87-4.24 0.518-1.12 1.45-2.57 2.04-3.19 0.294-0.308 0.696-0.967 0.895-1.47 0.397-0.99 1.52-2.24 2.01-2.24 0.386 0 0.713 0.681 1.19 2.48 0.89 3.39 1.17 4.23 1.68 5.08 0.299 0.497 0.547 0.986 0.551 1.09 0.0353 0.997 2.25 2.57 4.87 3.46 1.84 0.625 3.73 1.56 4.34 2.16 1.54 1.49 5.48 0.366 9.22-2.64 1.1-0.885 1.39-0.903 2.04-0.123 0.278 0.333 0.629 0.606 0.781 0.606 0.151 0 0.566 0.236 0.919 0.525 1.33 1.09 3.04 1.73 5.92 2.22 1.09 0.184 1.3 0.163 1.73-0.166 0.275-0.21 0.795-0.286 1.43-0.211 1.22 0.144 4.1-1 3.98-1.59-0.11-0.576-0.944-0.747-1.93-0.394-0.598 0.214-1 0.247-1.18 0.0917-0.165-0.143-0.491-0.153-0.824-0.0247-0.921 0.354-3.15-0.0304-3.69-0.638-0.295-0.33-0.757-0.535-1.22-0.539-1.23-0.0104-3.42-2.36-3.42-3.66 0-0.362-0.0943-0.722-0.21-0.796-0.115-0.074-0.282-0.816-0.368-1.65-0.334-3.21-0.934-3.79-2.19-2.14-1.05 1.39-1.44 2.51-1.27 3.65 0.0818 0.533 0.0547 0.97-0.0574 0.972-0.112 2e-3 -0.567 0.335-1.01 0.743-0.447 0.408-1.08 0.981-1.4 1.27-1.09 0.995-3.68 1.29-4.83 0.557-0.368-0.237-0.179-2.43 0.253-2.96 0.211-0.256 1.14-1.31 2.07-2.35l1.69-1.88 0.963 0.152c1.97 0.306 2.69-1.52 0.851-2.18-1.78-0.633-3.45 2e-3 -4.91 1.87-0.333 0.424-1.33 1.51-2.22 2.41-1.45 1.48-1.61 1.73-1.58 2.54 0.109 3.02-1.74 3.83-3.77 1.66-0.671-0.717-1.45-1.38-1.73-1.47-0.315-0.104-0.56-0.433-0.642-0.859-0.073-0.38-0.263-0.743-0.422-0.807-0.159-0.0637-0.357-0.552-0.439-1.08-0.0817-0.533-0.234-1.01-0.341-1.05-0.292-0.121-1.38-3.31-1.55-4.56-0.793-5.74-3.18-5.7-6.38 0.102-0.371 0.675-0.892 1.47-1.16 1.76-0.264 0.294-0.48 0.598-0.48 0.676s-0.418 0.811-0.929 1.63c-0.511 0.82-0.926 1.55-0.926 1.63 0 0.149-2.21 1.7-2.43 1.7-0.0716 0-0.128-0.206-0.128-0.458s-0.137-0.511-0.304-0.578c-0.303-0.121-0.926-3.37-1.23-6.41-0.0946-0.945-0.316-1.71-0.588-2.03-0.239-0.287-0.432-0.616-0.432-0.729 0-0.113-0.138-0.204-0.304-0.204-0.315 0-1.55 2.18-1.55 2.74 0 0.175-0.268 0.693-0.595 1.15-0.997 1.4-2.36 4.17-2.52 5.12-0.0839 0.495-0.284 1.04-0.446 1.21-0.162 0.171-0.368 0.515-0.46 0.768l-0.169 0.461-0.537-0.528c-0.297-0.29-0.686-0.823-0.865-1.18-0.179-0.36-0.729-1.42-1.22-2.35-0.491-0.934-1.14-2.44-1.44-3.36-0.3-0.915-0.753-1.9-1-2.18-0.25-0.283-0.681-1.06-0.96-1.73-0.278-0.666-0.602-1.4-0.72-1.63-0.117-0.231-0.213-0.578-0.213-0.768 0-0.19-0.313-0.618-0.696-0.954-0.383-0.336-0.696-0.68-0.696-0.764 0-0.519-0.202-0.792-0.524-0.863z" fill="#003189"/>
 </g>
</svg>
